<svg width="200" height="200" viewBox="0 0 200 200" fill="none" xmlns="http://www.w3.org/2000/svg">
<path d="M7.32233 7.32233C17.0854 -2.44078 32.9146 -2.44078 42.6777 7.32233L100 64.6447L157.322 7.32233C167.085 -2.44078 182.915 -2.44078 192.678 7.32233C202.441 17.0854 202.441 32.9146 192.678 42.6777L135.355 100L192.678 157.322C202.441 167.085 202.441 182.915 192.678 192.678C182.915 202.441 167.085 202.441 157.322 192.678L100 135.355L42.6777 192.678C32.9146 202.441 17.0854 202.441 7.32233 192.678C-2.44078 182.915 -2.44078 167.085 7.32233 157.322L64.6447 100L7.32233 42.6777C-2.44078 32.9146 -2.44078 17.0854 7.32233 7.32233Z" fill="white"/>
</svg>
