<svg width="200" height="200" viewBox="0 0 200 200" fill="none" xmlns="http://www.w3.org/2000/svg">
<g filter="url(#filter0_d_565_246)">
<path fill-rule="evenodd" clip-rule="evenodd" d="M75.5556 34.9097C76.7394 34.9437 77.8151 35.6067 78.3775 36.6488L89.5314 57.3171C90.0939 58.3592 90.0576 59.6223 89.4362 60.6304C88.8149 61.6386 87.7029 62.2387 86.5192 62.2047L63.043 61.5302C61.8592 61.4961 60.7836 60.8332 60.2211 59.791C59.6587 58.7489 59.695 57.4858 60.3163 56.4777L72.6386 36.4839C73.2599 35.4758 74.3719 34.8757 75.5556 34.9097Z" fill="#36B39E"/>
<path fill-rule="evenodd" clip-rule="evenodd" d="M30.6221 51.4623C31.4787 50.8432 32.6006 50.7282 33.565 51.1606L52.6922 59.7349C53.6567 60.1673 54.3172 61.0813 54.425 62.1327C54.5329 63.1842 54.0715 64.2132 53.2149 64.8323L36.2257 77.1098C35.369 77.7289 34.2472 77.8439 33.2827 77.4115C32.3182 76.9792 31.6577 76.0651 31.5499 75.0137L29.4119 54.1619C29.3041 53.1105 29.7654 52.0814 30.6221 51.4623Z" fill="#36B39E"/>
<path fill-rule="evenodd" clip-rule="evenodd" d="M6.97678 86.7532C7.30166 85.8676 8.07433 85.2226 9.00373 85.0611L27.4355 81.8594C28.3649 81.698 29.3099 82.0446 29.9144 82.7688C30.5189 83.493 30.6911 84.4846 30.3663 85.3702L23.9231 102.933C23.5982 103.819 22.8255 104.464 21.8961 104.626C20.9668 104.787 20.0218 104.44 19.4173 103.716L7.42866 89.3546C6.82415 88.6304 6.65189 87.6388 6.97678 86.7532Z" fill="#36B39E"/>
<path fill-rule="evenodd" clip-rule="evenodd" d="M6.16934 124.529C6.00359 123.704 6.2908 122.852 6.92277 122.296L19.456 111.264C20.088 110.708 20.9687 110.531 21.7664 110.8C22.5641 111.07 23.1576 111.744 23.3234 112.569L26.6106 128.939C26.7763 129.765 26.4891 130.616 25.8571 131.172C25.2252 131.728 24.3444 131.905 23.5467 131.636L7.72633 126.298C6.92862 126.029 6.33509 125.354 6.16934 124.529Z" fill="#36B39E"/>
<path fill-rule="evenodd" clip-rule="evenodd" d="M23.6201 151.082C23.2195 150.585 23.1146 149.912 23.345 149.316L27.9143 137.502C28.1447 136.907 28.6754 136.479 29.3065 136.381C29.9376 136.282 30.5732 136.528 30.9739 137.026L38.9201 146.89C39.3208 147.387 39.4257 148.06 39.1953 148.656C38.9649 149.252 38.4342 149.679 37.8031 149.778L25.2875 151.727C24.6564 151.826 24.0208 151.58 23.6201 151.082Z" fill="#36B39E"/>
<path fill-rule="evenodd" clip-rule="evenodd" d="M73.2373 154.12C97.0546 154.12 116.362 134.813 116.362 110.995C116.362 87.178 97.0546 67.8703 73.2373 67.8703C49.42 67.8703 30.1123 87.178 30.1123 110.995C30.1123 134.813 49.42 154.12 73.2373 154.12ZM96.1645 111.402C96.1645 124.023 85.9332 134.255 73.3123 134.255C60.6914 134.255 50.4601 124.023 50.4601 111.402C50.4601 98.7816 60.6914 88.5503 73.3123 88.5503C85.9332 88.5503 96.1645 98.7816 96.1645 111.402Z" fill="#4DFFE1"/>
<path d="M148.284 153.944C141.212 153.944 135.033 152.934 129.749 150.913C124.542 148.815 119.724 145.512 115.294 141.005L129.865 126.433C132.896 129.309 136.082 131.524 139.424 133.078C142.766 134.554 146.341 135.293 150.149 135.293C153.335 135.293 155.744 134.826 157.376 133.894C159.008 132.884 159.824 131.524 159.824 129.814C159.824 128.104 159.125 126.705 157.726 125.617C156.327 124.452 154.462 123.441 152.13 122.586C149.877 121.654 147.351 120.721 144.553 119.789C141.833 118.856 139.113 117.729 136.393 116.408C133.673 115.087 131.148 113.494 128.816 111.629C126.562 109.686 124.736 107.316 123.337 104.518C121.938 101.642 121.239 98.1453 121.239 94.0265C121.239 88.6642 122.521 84.0402 125.086 80.1545C127.65 76.2687 131.264 73.3156 135.927 71.295C140.59 69.1967 146.069 68.1476 152.364 68.1476C158.581 68.1476 164.332 69.1579 169.616 71.1785C174.978 73.1213 179.408 75.919 182.905 79.5716L168.217 94.143C165.653 91.6562 163.088 89.8299 160.524 88.6642C157.959 87.4207 155.161 86.799 152.13 86.799C149.721 86.799 147.778 87.1876 146.302 87.9647C144.903 88.7419 144.204 89.9076 144.204 91.4619C144.204 93.0939 144.903 94.4539 146.302 95.5419C147.701 96.5522 149.527 97.4847 151.781 98.3396C154.112 99.1945 156.638 100.088 159.358 101.021C162.156 101.953 164.914 103.08 167.634 104.401C170.354 105.645 172.841 107.277 175.095 109.297C177.426 111.24 179.292 113.688 180.69 116.641C182.089 119.594 182.789 123.169 182.789 127.366C182.789 135.837 179.758 142.404 173.696 147.066C167.712 151.652 159.241 153.944 148.284 153.944Z" fill="#4DFFE1"/>
</g>
<defs>
<filter id="filter0_d_565_246" x="6.12317" y="34.9083" width="176.782" height="121.955" filterUnits="userSpaceOnUse" color-interpolation-filters="sRGB">
<feFlood flood-opacity="0" result="BackgroundImageFix"/>
<feColorMatrix in="SourceAlpha" type="matrix" values="0 0 0 0 0 0 0 0 0 0 0 0 0 0 0 0 0 0 127 0" result="hardAlpha"/>
<feOffset dy="2.74286"/>
<feColorMatrix type="matrix" values="0 0 0 0 0.117 0 0 0 0 0.1485 0 0 0 0 0.18 0 0 0 0.25 0"/>
<feBlend mode="normal" in2="BackgroundImageFix" result="effect1_dropShadow_565_246"/>
<feBlend mode="normal" in="SourceGraphic" in2="effect1_dropShadow_565_246" result="shape"/>
</filter>
</defs>
</svg>
