<?xml version="1.0" standalone="no"?>
<!DOCTYPE svg PUBLIC "-//W3C//DTD SVG 20010904//EN"
 "http://www.w3.org/TR/2001/REC-SVG-20010904/DTD/svg10.dtd">
<svg version="1.0" xmlns="http://www.w3.org/2000/svg"
 width="512.000000pt" height="512.000000pt" viewBox="0 0 512.000000 512.000000"
 preserveAspectRatio="xMidYMid meet">
<metadata>
Created by potrace 1.14, written by Peter Selinger 2001-2017
</metadata>
<g transform="translate(0.000000,512.000000) scale(0.100000,-0.100000)"
fill="#000000" stroke="none">
<path d="M2780 4953 c-19 -8 -47 -31 -61 -51 -24 -35 -239 -404 -362 -622 -8
-14 -38 -65 -67 -115 -28 -49 -62 -108 -75 -130 -12 -22 -44 -78 -71 -124 -39
-68 -48 -94 -48 -132 0 -38 -4 -49 -21 -57 -17 -8 -24 -4 -44 29 -29 46 -48
54 -251 105 -8 2 -51 13 -95 25 -44 11 -87 23 -95 24 -8 2 -97 27 -197 54
-100 28 -192 53 -205 55 -13 3 -70 18 -128 34 -58 16 -116 27 -129 25 -63 -9
-111 -59 -112 -116 -1 -28 56 -268 81 -337 4 -14 23 -81 40 -150 144 -558 161
-605 230 -626 25 -8 27 -11 16 -27 -12 -15 -16 -16 -41 -3 -38 20 -72 13 -167
-33 -46 -21 -117 -55 -158 -74 -68 -31 -114 -53 -290 -134 -281 -131 -290
-137 -290 -198 1 -51 22 -74 161 -171 74 -51 143 -100 154 -108 27 -19 327
-230 389 -272 26 -19 60 -34 75 -34 15 0 28 -6 28 -12 0 -7 4 -30 8 -50 6 -34
5 -36 -14 -31 -32 8 -76 -15 -95 -50 -9 -18 -24 -44 -34 -59 -45 -72 -198
-315 -207 -330 -5 -9 -36 -60 -68 -112 -50 -81 -58 -99 -52 -126 11 -51 34
-58 200 -64 572 -21 575 -21 599 -11 11 5 21 3 26 -5 20 -32 82 -102 155 -175
44 -43 79 -83 77 -88 -1 -5 2 -6 8 -2 6 3 24 -7 41 -24 17 -17 34 -31 39 -31
5 0 13 -6 17 -14 4 -7 18 -18 31 -25 12 -7 20 -17 16 -23 -4 -7 -2 -8 5 -4 7
4 26 -3 44 -16 60 -45 243 -143 298 -160 22 -6 39 -15 39 -20 0 -4 3 -7 8 -6
10 3 85 -23 100 -35 7 -5 15 -7 19 -4 3 4 13 2 23 -3 23 -12 192 -50 250 -57
25 -2 72 -8 105 -13 62 -8 332 -5 395 5 19 3 67 10 105 16 92 15 96 16 125 27
14 5 27 10 30 10 35 0 349 122 380 148 8 7 22 14 30 16 8 2 17 5 20 8 4 5 37
28 207 141 13 9 32 25 42 35 11 11 37 35 60 54 49 42 131 124 161 163 12 15
26 24 32 21 7 -4 8 -2 4 4 -4 7 10 33 32 60 50 59 136 194 184 287 33 64 105
239 114 275 2 8 11 42 20 75 64 234 80 469 48 715 -4 36 -8 77 -9 93 0 15 -3
27 -6 27 -5 0 -33 121 -34 145 0 6 -2 12 -5 15 -3 3 -18 43 -34 90 -16 47 -46
123 -67 168 -22 46 -36 89 -32 95 3 5 2 7 -4 4 -13 -8 -46 50 -37 66 4 6 4 9
-1 5 -4 -4 -34 31 -66 77 -32 47 -71 102 -88 122 -16 20 -28 40 -25 45 3 5 2
7 -3 6 -4 -1 -55 45 -113 103 -100 99 -259 229 -280 229 -6 0 -10 5 -10 10 0
6 -6 10 -13 10 -7 0 -22 8 -33 18 -10 10 -34 24 -51 31 -18 7 -33 18 -33 24 0
6 -3 7 -7 4 -3 -4 -13 -1 -22 7 -9 8 -20 15 -24 15 -4 0 -27 9 -50 20 -39 19
-42 23 -41 58 1 37 -12 68 -82 184 -19 31 -34 62 -34 68 0 6 -4 11 -10 11 -5
0 -10 4 -10 9 0 4 -37 71 -81 147 -45 76 -95 164 -111 194 -17 30 -34 60 -38
65 -4 6 -17 26 -27 45 -78 138 -234 402 -245 413 -40 40 -111 53 -168 30z"/>
</g>
</svg>
