<svg width="200" height="200" viewBox="0 0 200 200" fill="none" xmlns="http://www.w3.org/2000/svg">
<path d="M168.75 0H31.25C21.25 0 12.5 8.75 12.5 18.75V181.25C12.5 191.25 21.25 200 31.25 200H168.75C178.75 200 187.5 191.25 187.5 181.25V18.75C187.5 8.75 178.75 0 168.75 0ZM62.5 170C62.5 172.5 60 175 57.5 175H42.5C40 175 37.5 172.5 37.5 170V155C37.5 152.5 40 150 42.5 150H57.5C60 150 62.5 152.5 62.5 155V170ZM62.5 120C62.5 122.5 60 125 57.5 125H42.5C40 125 37.5 122.5 37.5 120V105C37.5 102.5 40 100 42.5 100H57.5C60 100 62.5 102.5 62.5 105V120ZM112.5 170C112.5 172.5 110 175 107.5 175H92.5C90 175 87.5 172.5 87.5 170V155C87.5 152.5 90 150 92.5 150H107.5C110 150 112.5 152.5 112.5 155V170ZM112.5 120C112.5 122.5 110 125 107.5 125H92.5C90 125 87.5 122.5 87.5 120V105C87.5 102.5 90 100 92.5 100H107.5C110 100 112.5 102.5 112.5 105V120ZM162.5 170C162.5 172.5 160 175 157.5 175H142.5C140 175 137.5 172.5 137.5 170V105C137.5 102.5 140 100 142.5 100H157.5C160 100 162.5 102.5 162.5 105V170ZM162.5 70C162.5 72.5 160 75 157.5 75H42.5C40 75 37.5 72.5 37.5 70V30C37.5 27.5 40 25 42.5 25H157.5C160 25 162.5 27.5 162.5 30V70Z" fill="#1E262E"/>
<g filter="url(#filter0_d_116_74)">
<path fill-rule="evenodd" clip-rule="evenodd" d="M157.5 175C160 175 162.5 172.5 162.5 170V105C162.5 102.5 160 100 157.5 100H142.5C140 100 137.5 102.5 137.5 105V170C137.5 172.5 140 175 142.5 175H157.5Z" fill="#FF4D5B"/>
</g>
<g filter="url(#filter1_d_116_74)">
<path fill-rule="evenodd" clip-rule="evenodd" d="M57.5 175C60 175 62.5 172.5 62.5 170V155C62.5 152.5 60 150 57.5 150H42.5C40 150 37.5 152.5 37.5 155V170C37.5 172.5 40 175 42.5 175H57.5ZM57.5 125C60 125 62.5 122.5 62.5 120V105C62.5 102.5 60 100 57.5 100H42.5C40 100 37.5 102.5 37.5 105V120C37.5 122.5 40 125 42.5 125H57.5ZM107.5 175C110 175 112.5 172.5 112.5 170V155C112.5 152.5 110 150 107.5 150H92.5C90 150 87.5 152.5 87.5 155V170C87.5 172.5 90 175 92.5 175H107.5ZM107.5 125C110 125 112.5 122.5 112.5 120V105C112.5 102.5 110 100 107.5 100H92.5C90 100 87.5 102.5 87.5 105V120C87.5 122.5 90 125 92.5 125H107.5Z" fill="#5C6166"/>
</g>
<g filter="url(#filter2_d_116_74)">
<path fill-rule="evenodd" clip-rule="evenodd" d="M157.5 75C160 75 162.5 72.5 162.5 70V30C162.5 27.5 160 25 157.5 25H42.5C40 25 37.5 27.5 37.5 30V70C37.5 72.5 40 75 42.5 75H157.5Z" fill="#4D9CFF"/>
</g>
<defs>
<filter id="filter0_d_116_74" x="117.5" y="80" width="65" height="115" filterUnits="userSpaceOnUse" color-interpolation-filters="sRGB">
<feFlood flood-opacity="0" result="BackgroundImageFix"/>
<feColorMatrix in="SourceAlpha" type="matrix" values="0 0 0 0 0 0 0 0 0 0 0 0 0 0 0 0 0 0 127 0" result="hardAlpha"/>
<feOffset/>
<feGaussianBlur stdDeviation="10"/>
<feColorMatrix type="matrix" values="0 0 0 0 0 0 0 0 0 0 0 0 0 0 0 0 0 0 0.5 0"/>
<feBlend mode="normal" in2="BackgroundImageFix" result="effect1_dropShadow_116_74"/>
<feBlend mode="normal" in="SourceGraphic" in2="effect1_dropShadow_116_74" result="shape"/>
</filter>
<filter id="filter1_d_116_74" x="17.5" y="80" width="115" height="115" filterUnits="userSpaceOnUse" color-interpolation-filters="sRGB">
<feFlood flood-opacity="0" result="BackgroundImageFix"/>
<feColorMatrix in="SourceAlpha" type="matrix" values="0 0 0 0 0 0 0 0 0 0 0 0 0 0 0 0 0 0 127 0" result="hardAlpha"/>
<feOffset/>
<feGaussianBlur stdDeviation="10"/>
<feColorMatrix type="matrix" values="0 0 0 0 0 0 0 0 0 0 0 0 0 0 0 0 0 0 0.5 0"/>
<feBlend mode="normal" in2="BackgroundImageFix" result="effect1_dropShadow_116_74"/>
<feBlend mode="normal" in="SourceGraphic" in2="effect1_dropShadow_116_74" result="shape"/>
</filter>
<filter id="filter2_d_116_74" x="17.5" y="5" width="165" height="90" filterUnits="userSpaceOnUse" color-interpolation-filters="sRGB">
<feFlood flood-opacity="0" result="BackgroundImageFix"/>
<feColorMatrix in="SourceAlpha" type="matrix" values="0 0 0 0 0 0 0 0 0 0 0 0 0 0 0 0 0 0 127 0" result="hardAlpha"/>
<feOffset/>
<feGaussianBlur stdDeviation="10"/>
<feColorMatrix type="matrix" values="0 0 0 0 0 0 0 0 0 0 0 0 0 0 0 0 0 0 0.5 0"/>
<feBlend mode="normal" in2="BackgroundImageFix" result="effect1_dropShadow_116_74"/>
<feBlend mode="normal" in="SourceGraphic" in2="effect1_dropShadow_116_74" result="shape"/>
</filter>
</defs>
</svg>
