<svg width="200" height="200" viewBox="0 0 200 200" fill="none" xmlns="http://www.w3.org/2000/svg">
<g clip-path="url(#clip0_4_24)">
<path d="M135.566 13.3976C144.498 13.3976 152.751 18.1626 157.217 25.8976L192.783 87.5001C197.249 95.2352 197.249 104.765 192.783 112.5L157.217 174.103C152.751 181.838 144.498 186.603 135.566 186.603L64.4338 186.603C55.5021 186.603 47.2489 181.838 42.7831 174.103L7.21687 112.5C2.75105 104.765 2.75106 95.2352 7.21688 87.5001L42.7831 25.8976C47.2489 18.1626 55.5021 13.3976 64.4338 13.3976L135.566 13.3976Z" fill="#4D9CFF"/>
<g filter="url(#filter0_d_4_24)">
<path d="M90.8816 156.889L77.3483 152.948C75.9284 152.547 75.1298 151.055 75.5291 149.63L105.813 44.929C106.212 43.5039 107.698 42.7022 109.118 43.1031L122.652 47.0444C124.072 47.4452 124.87 48.9371 124.471 50.3622L94.1873 155.063C93.7658 156.488 92.3015 157.312 90.8816 156.889ZM65.5899 131.905L75.2407 121.573C76.2612 120.482 76.1947 118.745 75.0632 117.743L54.9629 99.996L75.0632 82.249C76.1947 81.2469 76.2834 79.5101 75.2407 78.419L65.5899 68.087C64.5915 67.0181 62.9054 66.9513 61.8183 67.9756L29.8486 98.0365C28.7171 99.083 28.7171 100.887 29.8486 101.933L61.8183 132.016C62.9054 133.041 64.5915 132.996 65.5899 131.905ZM138.182 132.039L170.151 101.956C171.283 100.909 171.283 99.1053 170.151 98.0588L138.182 67.9534C137.117 66.9513 135.431 66.9959 134.41 68.0647L124.759 78.3967C123.739 79.4878 123.805 81.2247 124.937 82.2267L145.037 99.996L124.937 117.743C123.805 118.745 123.717 120.482 124.759 121.573L134.41 131.905C135.408 132.996 137.095 133.041 138.182 132.039Z" fill="#1E262E"/>
</g>
</g>
<defs>
<filter id="filter0_d_4_24" x="9" y="23" width="182" height="154" filterUnits="userSpaceOnUse" color-interpolation-filters="sRGB">
<feFlood flood-opacity="0" result="BackgroundImageFix"/>
<feColorMatrix in="SourceAlpha" type="matrix" values="0 0 0 0 0 0 0 0 0 0 0 0 0 0 0 0 0 0 127 0" result="hardAlpha"/>
<feOffset/>
<feGaussianBlur stdDeviation="10"/>
<feColorMatrix type="matrix" values="0 0 0 0 0 0 0 0 0 0 0 0 0 0 0 0 0 0 0.5 0"/>
<feBlend mode="normal" in2="BackgroundImageFix" result="effect1_dropShadow_4_24"/>
<feBlend mode="normal" in="SourceGraphic" in2="effect1_dropShadow_4_24" result="shape"/>
</filter>
<clipPath id="clip0_4_24">
<rect width="200" height="200" fill="white"/>
</clipPath>
</defs>
</svg>
