<svg width="200" height="200" viewBox="0 0 200 200" fill="none" xmlns="http://www.w3.org/2000/svg">
<mask id="mask0_63_42" style="mask-type:alpha" maskUnits="userSpaceOnUse" x="4" y="0" width="193" height="200">
<path d="M37.4375 138.791C36.2656 139.143 35.0938 139.455 34 139.807V13.3021C43.9609 10.5291 56.2656 8.02942 68.375 8.02942C82.6328 8.02942 95.0547 11.5836 105.719 14.63L106.227 14.7862C117.359 17.9498 126.695 20.5276 137.125 20.5276C147.594 20.5276 157.789 17.8717 165.641 15.0206C169.508 13.6145 172.633 12.2085 174.781 11.193C175.836 10.6853 176.656 10.2557 177.203 9.98226C177.477 9.82603 177.633 9.74792 177.75 9.6698L177.828 9.63075C181.695 7.44357 186.461 7.44357 190.289 9.70886C194.117 11.9742 196.5 16.0751 196.5 20.5276V120.513C196.5 125.239 193.844 129.574 189.586 131.683L184 120.513C189.586 131.683 189.586 131.683 189.586 131.683H189.547L189.469 131.722L189.195 131.878C188.961 131.996 188.609 132.152 188.219 132.347C187.359 132.738 186.188 133.284 184.703 133.909C181.695 135.198 177.477 136.878 172.398 138.557C162.32 141.955 148.375 145.509 134 145.509C119.547 145.509 108.531 141.838 99.2344 138.752L98.8438 138.635C89.4688 135.511 81.7734 133.011 71.5 133.011C60.7578 133.011 48.0234 135.745 37.4375 138.791Z" fill="#EE5253"/>
<path d="M34 187.5V12.5C34 5.58594 27.2969 0 19 0C10.7031 0 4 5.58594 4 12.5V187.5C4 194.414 10.7031 200 19 200C27.2969 200 34 194.414 34 187.5Z" fill="#FF974D"/>
</mask>
<g mask="url(#mask0_63_42)">
<path d="M37.4375 138.791C36.2656 139.143 35.0938 139.455 34 139.807V13.3021C43.9609 10.5291 56.2656 8.02942 68.375 8.02942C82.6328 8.02942 95.0547 11.5836 105.719 14.63L106.227 14.7862C117.359 17.9498 126.695 20.5276 137.125 20.5276C147.594 20.5276 157.789 17.8717 165.641 15.0206C169.508 13.6145 172.633 12.2085 174.781 11.193C175.836 10.6853 176.656 10.2557 177.203 9.98226C177.477 9.82603 177.633 9.74792 177.75 9.6698L177.828 9.63075C181.695 7.44357 186.461 7.44357 190.289 9.70886C194.117 11.9742 196.5 16.0751 196.5 20.5276V120.513C196.5 125.239 193.844 129.574 189.586 131.683L184 120.513C189.586 131.683 189.586 131.683 189.586 131.683H189.547L189.469 131.722L189.195 131.878C188.961 131.996 188.609 132.152 188.219 132.347C187.359 132.738 186.188 133.284 184.703 133.909C181.695 135.198 177.477 136.878 172.398 138.557C162.32 141.955 148.375 145.509 134 145.509C119.547 145.509 108.531 141.838 99.2344 138.752L98.8438 138.635C89.4688 135.511 81.7734 133.011 71.5 133.011C60.7578 133.011 48.0234 135.745 37.4375 138.791Z" fill="#FF4D5B"/>
<g filter="url(#filter0_d_63_42)">
<path d="M34 187.5V12.5C34 5.58594 27.2969 0 19 0C10.7031 0 4 5.58594 4 12.5V187.5C4 194.414 10.7031 200 19 200C27.2969 200 34 194.414 34 187.5Z" fill="#FF974D"/>
</g>
</g>
<defs>
<filter id="filter0_d_63_42" x="-16" y="-20" width="70" height="240" filterUnits="userSpaceOnUse" color-interpolation-filters="sRGB">
<feFlood flood-opacity="0" result="BackgroundImageFix"/>
<feColorMatrix in="SourceAlpha" type="matrix" values="0 0 0 0 0 0 0 0 0 0 0 0 0 0 0 0 0 0 127 0" result="hardAlpha"/>
<feOffset/>
<feGaussianBlur stdDeviation="10"/>
<feColorMatrix type="matrix" values="0 0 0 0 0 0 0 0 0 0 0 0 0 0 0 0 0 0 0.5 0"/>
<feBlend mode="normal" in2="BackgroundImageFix" result="effect1_dropShadow_63_42"/>
<feBlend mode="normal" in="SourceGraphic" in2="effect1_dropShadow_63_42" result="shape"/>
</filter>
</defs>
</svg>
