<svg width="200" height="200" viewBox="0 0 200 200" fill="none" xmlns="http://www.w3.org/2000/svg">
<g clip-path="url(#clip0_418_187)">
<path d="M137.5 100C137.5 108.672 137.031 117.031 136.211 125H63.7891C62.9297 117.031 62.5 108.672 62.5 100C62.5 91.3281 62.9688 82.9687 63.7891 75H136.211C137.07 82.9687 137.5 91.3281 137.5 100ZM148.75 75H196.836C198.906 83.0078 200 91.3672 200 100C200 108.633 198.906 116.992 196.836 125H148.75C149.57 116.953 150 108.594 150 100C150 91.4062 149.57 83.0469 148.75 75ZM192.734 62.5H147.148C143.242 37.5391 135.508 16.6406 125.547 3.28125C156.133 11.3672 181.016 33.5547 192.695 62.5H192.734ZM134.492 62.5H65.5078C67.8906 48.2812 71.5625 35.7031 76.0547 25.5078C80.1562 16.2891 84.7266 9.60938 89.1406 5.39063C93.5156 1.25 97.1484 0 100 0C102.852 0 106.484 1.25 110.859 5.39063C115.273 9.60938 119.844 16.2891 123.945 25.5078C128.477 35.6641 132.109 48.2422 134.492 62.5ZM52.8516 62.5H7.26563C18.9844 33.5547 43.8281 11.3672 74.4531 3.28125C64.4922 16.6406 56.7578 37.5391 52.8516 62.5ZM3.16406 75H51.25C50.4297 83.0469 50 91.4062 50 100C50 108.594 50.4297 116.953 51.25 125H3.16406C1.09375 116.992 0 108.633 0 100C0 91.3672 1.09375 83.0078 3.16406 75ZM76.0547 174.453C71.5234 164.297 67.8906 151.719 65.5078 137.5H134.492C132.109 151.719 128.437 164.297 123.945 174.453C119.844 183.672 115.273 190.352 110.859 194.57C106.484 198.75 102.852 200 100 200C97.1484 200 93.5156 198.75 89.1406 194.609C84.7266 190.391 80.1562 183.711 76.0547 174.492V174.453ZM52.8516 137.5C56.7578 162.461 64.4922 183.359 74.4531 196.719C43.8281 188.633 18.9844 166.445 7.26563 137.5H52.8516ZM192.734 137.5C181.016 166.445 156.172 188.633 125.586 196.719C135.547 183.359 143.242 162.461 147.187 137.5H192.734Z" fill="#E6F2FF"/>
</g>
<defs>
<clipPath id="clip0_418_187">
<rect width="200" height="200" fill="white"/>
</clipPath>
</defs>
</svg>
