<svg width="200" height="200" viewBox="0 0 200 200" fill="none" xmlns="http://www.w3.org/2000/svg">
<path d="M56.2778 23C44.0821 23 34.1667 32.8656 34.1667 45V122C34.1667 134.134 44.0821 144 56.2778 144H177.889C190.085 144 200 134.134 200 122V45C200 32.8656 190.085 23 177.889 23H56.2778ZM137.812 59.6781L170.979 109.178C172.672 111.722 172.845 114.953 171.394 117.634C169.943 120.316 167.144 122 164.069 122H114.319H97.7361H70.0972C66.9187 122 64.0167 120.178 62.6347 117.325C61.2528 114.472 61.6328 111.069 63.6366 108.594L85.7477 81.0938C87.337 79.1344 89.6863 78 92.2083 78C94.7304 78 97.1142 79.1344 98.6689 81.0938L104.646 88.5188L123.993 59.6438C125.548 57.375 128.139 56 130.903 56C133.667 56 136.258 57.375 137.812 59.6781ZM67.3333 56C67.3333 53.0826 68.4981 50.2847 70.5714 48.2218C72.6448 46.1589 75.4568 45 78.3889 45C81.321 45 84.133 46.1589 86.2063 48.2218C88.2797 50.2847 89.4444 53.0826 89.4444 56C89.4444 58.9174 88.2797 61.7153 86.2063 63.7782C84.133 65.8411 81.321 67 78.3889 67C75.4568 67 72.6448 65.8411 70.5714 63.7782C68.4981 61.7153 67.3333 58.9174 67.3333 56ZM17.5833 53.25C17.5833 48.6781 13.8866 45 9.29167 45C4.6967 45 1 48.6781 1 53.25V130.25C1 156.066 22.0401 177 47.9861 177H158.542C163.137 177 166.833 173.322 166.833 168.75C166.833 164.178 163.137 160.5 158.542 160.5H47.9861C31.1955 160.5 17.5833 146.956 17.5833 130.25V53.25Z" fill="#E6F2FF"/>
</svg>
