<svg width="200" height="200" viewBox="0 0 200 200" fill="none" xmlns="http://www.w3.org/2000/svg">
<path d="M1 34.0043C1 21.8676 10.9172 12 23.115 12H78.4023V56.0086C78.4023 62.0942 83.3436 67.0107 89.4598 67.0107H133.69V115.008L100.966 147.567C98.133 150.386 96.1288 153.928 95.1613 157.778L89.9781 178.442C89.1834 181.674 89.3561 184.974 90.4619 188H23.115C10.9172 188 1 178.132 1 165.996V34.0043ZM133.69 56.0086H89.4598V12L133.69 56.0086ZM190.981 93.0377L195.957 97.9887C201.348 103.352 201.348 112.051 195.957 117.449L185.798 127.557L161.264 103.146L171.423 93.0377C176.814 87.6742 185.556 87.6742 190.981 93.0377ZM108.776 155.372L153.42 110.951L177.954 135.362L133.31 179.748C131.893 181.158 130.131 182.155 128.161 182.636L107.394 187.794C105.493 188.275 103.524 187.725 102.141 186.35C100.759 184.974 100.206 183.015 100.69 181.124L105.873 160.46C106.357 158.535 107.359 156.747 108.776 155.337V155.372Z" fill="#E6F2FF"/>
</svg>
