<svg width="200" height="200" viewBox="0 0 200 200" fill="none" xmlns="http://www.w3.org/2000/svg">
<path d="M200 56.25V168.75C200 179.102 191.602 187.5 181.25 187.5H18.75C8.39844 187.5 0 179.102 0 168.75V56.25C0 45.8984 8.39844 37.5 18.75 37.5H53.125L57.9297 24.6484C60.6641 17.3437 67.6562 12.5 75.4688 12.5H124.492C132.305 12.5 139.297 17.3437 142.031 24.6484L146.875 37.5H181.25C191.602 37.5 200 45.8984 200 56.25ZM146.875 112.5C146.875 86.6406 125.859 65.625 100 65.625C74.1406 65.625 53.125 86.6406 53.125 112.5C53.125 138.359 74.1406 159.375 100 159.375C125.859 159.375 146.875 138.359 146.875 112.5Z" fill="#576574"/>
<g filter="url(#filter0_d_4_25)">
<path d="M100 168C130.312 168 155 143.312 155 113C155 82.6875 130.312 58 100 58C69.6875 58 45 82.6875 45 113C45 143.312 69.6875 168 100 168Z" fill="#8395A7"/>
</g>
<g filter="url(#filter1_d_4_25)">
<path d="M100 151C120.943 151 138 133.719 138 112.5C138 91.2812 120.943 74 100 74C79.0568 74 62 91.2812 62 112.5C62 133.719 79.0568 151 100 151Z" fill="white"/>
</g>
<defs>
<filter id="filter0_d_4_25" x="25" y="38" width="150" height="150" filterUnits="userSpaceOnUse" color-interpolation-filters="sRGB">
<feFlood flood-opacity="0" result="BackgroundImageFix"/>
<feColorMatrix in="SourceAlpha" type="matrix" values="0 0 0 0 0 0 0 0 0 0 0 0 0 0 0 0 0 0 127 0" result="hardAlpha"/>
<feOffset/>
<feGaussianBlur stdDeviation="10"/>
<feComposite in2="hardAlpha" operator="out"/>
<feColorMatrix type="matrix" values="0 0 0 0 0 0 0 0 0 0 0 0 0 0 0 0 0 0 0.5 0"/>
<feBlend mode="normal" in2="BackgroundImageFix" result="effect1_dropShadow_4_25"/>
<feBlend mode="normal" in="SourceGraphic" in2="effect1_dropShadow_4_25" result="shape"/>
</filter>
<filter id="filter1_d_4_25" x="42" y="54" width="116" height="117" filterUnits="userSpaceOnUse" color-interpolation-filters="sRGB">
<feFlood flood-opacity="0" result="BackgroundImageFix"/>
<feColorMatrix in="SourceAlpha" type="matrix" values="0 0 0 0 0 0 0 0 0 0 0 0 0 0 0 0 0 0 127 0" result="hardAlpha"/>
<feOffset/>
<feGaussianBlur stdDeviation="10"/>
<feComposite in2="hardAlpha" operator="out"/>
<feColorMatrix type="matrix" values="0 0 0 0 0 0 0 0 0 0 0 0 0 0 0 0 0 0 0.5 0"/>
<feBlend mode="normal" in2="BackgroundImageFix" result="effect1_dropShadow_4_25"/>
<feBlend mode="normal" in="SourceGraphic" in2="effect1_dropShadow_4_25" result="shape"/>
</filter>
</defs>
</svg>
