<svg width="200" height="200" viewBox="0 0 200 200" fill="none" xmlns="http://www.w3.org/2000/svg">
<g clip-path="url(#clip0_63_42)">
<g filter="url(#filter0_d_63_42)">
<path d="M25 12.5276V187.502C25 194.415 19.4141 200 12.5 200C5.58594 200 0 194.415 0 187.502V12.5276C0 5.61454 5.58594 0.029421 12.5 0.029421C19.4141 0.029421 25 5.61454 25 12.5276ZM40.9375 130.791C39.7656 131.143 38.5937 131.455 37.5 131.807V5.30208C47.4609 2.52905 59.7656 0.029421 71.875 0.029421C86.1328 0.029421 98.5547 3.58359 109.219 6.63001L109.727 6.78624C120.859 9.94984 130.195 12.5276 140.625 12.5276C151.094 12.5276 161.289 9.87172 169.141 7.02058C173.008 5.61454 176.133 4.20849 178.281 3.19302C179.336 2.68528 180.156 2.25566 180.703 1.98226C180.977 1.82603 181.133 1.74792 181.25 1.6698L181.328 1.63075C185.195 -0.55643 189.961 -0.55643 193.789 1.70886C197.617 3.97415 200 8.07511 200 12.5276V112.513C200 117.239 197.344 121.574 193.086 123.683L187.5 112.513C193.086 123.683 193.086 123.683 193.086 123.683H193.047L192.969 123.722L192.695 123.878C192.461 123.996 192.109 124.152 191.719 124.347C190.859 124.738 189.687 125.284 188.203 125.909C185.195 127.198 180.977 128.878 175.898 130.557C165.82 133.955 151.875 137.509 137.5 137.509C123.047 137.509 112.031 133.838 102.734 130.752L102.344 130.635C92.9688 127.511 85.2734 125.011 75 125.011C64.2578 125.011 51.5234 127.745 40.9375 130.791Z" fill="#EE5253"/>
</g>
</g>
<defs>
<filter id="filter0_d_63_42" x="-20" y="-20" width="240" height="240" filterUnits="userSpaceOnUse" color-interpolation-filters="sRGB">
<feFlood flood-opacity="0" result="BackgroundImageFix"/>
<feColorMatrix in="SourceAlpha" type="matrix" values="0 0 0 0 0 0 0 0 0 0 0 0 0 0 0 0 0 0 127 0" result="hardAlpha"/>
<feOffset/>
<feGaussianBlur stdDeviation="10"/>
<feComposite in2="hardAlpha" operator="out"/>
<feColorMatrix type="matrix" values="0 0 0 0 0 0 0 0 0 0 0 0 0 0 0 0 0 0 0.5 0"/>
<feBlend mode="normal" in2="BackgroundImageFix" result="effect1_dropShadow_63_42"/>
<feBlend mode="normal" in="SourceGraphic" in2="effect1_dropShadow_63_42" result="shape"/>
</filter>
<clipPath id="clip0_63_42">
<rect width="200" height="200" fill="white"/>
</clipPath>
</defs>
</svg>
