<svg width="1740" height="1236" viewBox="0 0 1740 1236" fill="none" xmlns="http://www.w3.org/2000/svg">
<g filter="url(#filter0_d_366_104)">
<path fill-rule="evenodd" clip-rule="evenodd" d="M655.534 48.012C665.892 48.3096 675.304 54.1104 680.225 63.2294L777.822 244.076C782.744 253.195 782.426 264.247 776.989 273.068C771.553 281.89 761.823 287.141 751.465 286.843L546.048 280.941C535.691 280.643 526.278 274.843 521.357 265.724C516.436 256.605 516.754 245.553 522.19 236.732L630.01 61.7866C635.446 52.9653 645.176 47.7144 655.534 48.012Z" fill="#36B39E"/>
<path fill-rule="evenodd" clip-rule="evenodd" d="M262.365 192.847C269.861 187.431 279.677 186.424 288.116 190.207L455.479 265.233C463.918 269.016 469.698 277.014 470.641 286.214C471.585 295.414 467.548 304.418 460.053 309.835L311.397 417.263C303.901 422.68 294.085 423.686 285.646 419.903C277.207 416.12 271.427 408.122 270.484 398.922L251.776 216.469C250.833 207.269 254.869 198.264 262.365 192.847Z" fill="#36B39E"/>
<path fill-rule="evenodd" clip-rule="evenodd" d="M55.4691 501.642C58.3118 493.893 65.0727 488.25 73.2049 486.837L234.483 458.822C242.616 457.41 250.884 460.443 256.173 466.779C261.463 473.116 262.97 481.793 260.127 489.542L203.749 643.22C200.907 650.969 194.146 656.613 186.014 658.026C177.881 659.438 169.613 656.405 164.324 650.069L59.423 524.405C54.1335 518.068 52.6263 509.391 55.4691 501.642Z" fill="#36B39E"/>
<path fill-rule="evenodd" clip-rule="evenodd" d="M48.404 832.181C46.9537 824.958 49.4667 817.51 54.9965 812.643L164.662 716.116C170.192 711.248 177.898 709.701 184.878 712.056C191.858 714.411 197.052 720.311 198.502 727.534L227.265 870.771C228.715 877.994 226.202 885.441 220.672 890.309C215.142 895.176 207.436 896.723 200.456 894.368L62.0277 847.659C55.0477 845.303 49.8543 839.403 48.404 832.181Z" fill="#36B39E"/>
<path fill-rule="evenodd" clip-rule="evenodd" d="M201.099 1064.52C197.593 1060.17 196.675 1054.28 198.691 1049.07L238.673 945.697C240.689 940.485 245.332 936.744 250.854 935.884C256.376 935.024 261.938 937.175 265.444 941.527L334.973 1027.84C338.479 1032.19 339.397 1038.08 337.381 1043.29C335.365 1048.51 330.721 1052.25 325.2 1053.11L215.688 1070.17C210.166 1071.03 204.604 1068.87 201.099 1064.52Z" fill="#36B39E"/>
<path fill-rule="evenodd" clip-rule="evenodd" d="M635.249 1091.1C843.65 1091.1 1012.59 922.162 1012.59 713.761C1012.59 505.36 843.65 336.417 635.249 336.417C426.847 336.417 257.905 505.36 257.905 713.761C257.905 922.162 426.847 1091.1 635.249 1091.1ZM835.861 717.324C835.861 827.757 746.338 917.28 635.905 917.28C525.472 917.28 435.948 827.757 435.948 717.324C435.948 606.891 525.472 517.367 635.905 517.367C746.338 517.367 835.861 606.891 835.861 717.324Z" fill="#4DFFE1"/>
<path d="M1291.9 1089.56C1230.02 1089.56 1175.96 1080.72 1129.72 1063.04C1084.16 1044.68 1042 1015.78 1003.24 976.344L1130.74 848.844C1157.26 874.004 1185.14 893.384 1214.38 906.984C1243.62 919.904 1274.9 926.364 1308.22 926.364C1336.1 926.364 1357.18 922.284 1371.46 914.124C1385.74 905.284 1392.88 893.384 1392.88 878.424C1392.88 863.464 1386.76 851.224 1374.52 841.704C1362.28 831.504 1345.96 822.664 1325.56 815.184C1305.84 807.024 1283.74 798.864 1259.26 790.704C1235.46 782.544 1211.66 772.684 1187.86 761.124C1164.06 749.564 1141.96 735.624 1121.56 719.304C1101.84 702.304 1085.86 681.564 1073.62 657.084C1061.38 631.924 1055.26 601.324 1055.26 565.284C1055.26 518.364 1066.48 477.904 1088.92 443.904C1111.36 409.904 1142.98 384.064 1183.78 366.384C1224.58 348.024 1272.52 338.844 1327.6 338.844C1382 338.844 1432.32 347.684 1478.56 365.364C1525.48 382.364 1564.24 406.844 1594.84 438.804L1466.32 566.304C1443.88 544.544 1421.44 528.564 1399 518.364C1376.56 507.484 1352.08 502.044 1325.56 502.044C1304.48 502.044 1287.48 505.444 1274.56 512.244C1262.32 519.044 1256.2 529.244 1256.2 542.844C1256.2 557.124 1262.32 569.024 1274.56 578.544C1286.8 587.384 1302.78 595.544 1322.5 603.024C1342.9 610.504 1365 618.324 1388.8 626.484C1413.28 634.644 1437.42 644.504 1461.22 656.064C1485.02 666.944 1506.78 681.224 1526.5 698.904C1546.9 715.904 1563.22 737.324 1575.46 763.164C1587.7 789.004 1593.82 820.284 1593.82 857.004C1593.82 931.124 1567.3 988.584 1514.26 1029.38C1461.9 1069.5 1387.78 1089.56 1291.9 1089.56Z" fill="#4DFFE1"/>
</g>
<defs>
<filter id="filter0_d_366_104" x="48" y="48" width="1548" height="1068" filterUnits="userSpaceOnUse" color-interpolation-filters="sRGB">
<feFlood flood-opacity="0" result="BackgroundImageFix"/>
<feColorMatrix in="SourceAlpha" type="matrix" values="0 0 0 0 0 0 0 0 0 0 0 0 0 0 0 0 0 0 127 0" result="hardAlpha"/>
<feOffset dy="24"/>
<feColorMatrix type="matrix" values="0 0 0 0 0.117 0 0 0 0 0.1485 0 0 0 0 0.18 0 0 0 0.25 0"/>
<feBlend mode="normal" in2="BackgroundImageFix" result="effect1_dropShadow_366_104"/>
<feBlend mode="normal" in="SourceGraphic" in2="effect1_dropShadow_366_104" result="shape"/>
</filter>
</defs>
</svg>
