<svg width="200" height="200" viewBox="0 0 200 200" fill="none" xmlns="http://www.w3.org/2000/svg">
<g clip-path="url(#clip0_445_135)">
<path d="M181.25 100C181.25 78.4512 172.69 57.7849 157.452 42.5476C142.215 27.3102 121.549 18.75 100 18.75C78.4512 18.75 57.7849 27.3102 42.5476 42.5476C27.3102 57.7849 18.75 78.4512 18.75 100C18.75 121.549 27.3102 142.215 42.5476 157.452C57.7849 172.69 78.4512 181.25 100 181.25C121.549 181.25 142.215 172.69 157.452 157.452C172.69 142.215 181.25 121.549 181.25 100ZM0 100C0 73.4784 10.5357 48.043 29.2893 29.2893C48.043 10.5357 73.4784 0 100 0C126.522 0 151.957 10.5357 170.711 29.2893C189.464 48.043 200 73.4784 200 100C200 126.522 189.464 151.957 170.711 170.711C151.957 189.464 126.522 200 100 200C73.4784 200 48.043 189.464 29.2893 170.711C10.5357 151.957 0 126.522 0 100ZM100 62.5C109.946 62.5 119.484 66.4509 126.517 73.4835C133.549 80.5161 137.5 90.0544 137.5 100C137.5 109.946 133.549 119.484 126.517 126.517C119.484 133.549 109.946 137.5 100 137.5C90.0544 137.5 80.5161 133.549 73.4835 126.517C66.4509 119.484 62.5 109.946 62.5 100C62.5 90.0544 66.4509 80.5161 73.4835 73.4835C80.5161 66.4509 90.0544 62.5 100 62.5Z" fill="#E6F2FF"/>
</g>
<defs>
<clipPath id="clip0_445_135">
<rect width="200" height="200" fill="white"/>
</clipPath>
</defs>
</svg>
