<svg width="200" height="200" viewBox="0 0 200 200" fill="none" xmlns="http://www.w3.org/2000/svg">
<path d="M50 0C36.2109 0 25 11.2109 25 25V175C25 188.789 36.2109 200 50 200H150C163.789 200 175 188.789 175 175V25C175 11.2109 163.789 0 150 0H50ZM62.5 25H137.5C144.414 25 150 30.5859 150 37.5V50C150 56.9141 144.414 62.5 137.5 62.5H62.5C55.5859 62.5 50 56.9141 50 50V37.5C50 30.5859 55.5859 25 62.5 25ZM75 87.5C75 90.8152 73.683 93.9946 71.3388 96.3388C68.9946 98.683 65.8152 100 62.5 100C59.1848 100 56.0054 98.683 53.6612 96.3388C51.317 93.9946 50 90.8152 50 87.5C50 84.1848 51.317 81.0054 53.6612 78.6612C56.0054 76.317 59.1848 75 62.5 75C65.8152 75 68.9946 76.317 71.3388 78.6612C73.683 81.0054 75 84.1848 75 87.5ZM62.5 137.5C59.1848 137.5 56.0054 136.183 53.6612 133.839C51.317 131.495 50 128.315 50 125C50 121.685 51.317 118.505 53.6612 116.161C56.0054 113.817 59.1848 112.5 62.5 112.5C65.8152 112.5 68.9946 113.817 71.3388 116.161C73.683 118.505 75 121.685 75 125C75 128.315 73.683 131.495 71.3388 133.839C68.9946 136.183 65.8152 137.5 62.5 137.5ZM50 162.5C50 155.586 55.5859 150 62.5 150H100C106.914 150 112.5 155.586 112.5 162.5C112.5 169.414 106.914 175 100 175H62.5C55.5859 175 50 169.414 50 162.5ZM100 100C96.6848 100 93.5054 98.683 91.1612 96.3388C88.817 93.9946 87.5 90.8152 87.5 87.5C87.5 84.1848 88.817 81.0054 91.1612 78.6612C93.5054 76.317 96.6848 75 100 75C103.315 75 106.495 76.317 108.839 78.6612C111.183 81.0054 112.5 84.1848 112.5 87.5C112.5 90.8152 111.183 93.9946 108.839 96.3388C106.495 98.683 103.315 100 100 100ZM112.5 125C112.5 128.315 111.183 131.495 108.839 133.839C106.495 136.183 103.315 137.5 100 137.5C96.6848 137.5 93.5054 136.183 91.1612 133.839C88.817 131.495 87.5 128.315 87.5 125C87.5 121.685 88.817 118.505 91.1612 116.161C93.5054 113.817 96.6848 112.5 100 112.5C103.315 112.5 106.495 113.817 108.839 116.161C111.183 118.505 112.5 121.685 112.5 125ZM137.5 100C134.185 100 131.005 98.683 128.661 96.3388C126.317 93.9946 125 90.8152 125 87.5C125 84.1848 126.317 81.0054 128.661 78.6612C131.005 76.317 134.185 75 137.5 75C140.815 75 143.995 76.317 146.339 78.6612C148.683 81.0054 150 84.1848 150 87.5C150 90.8152 148.683 93.9946 146.339 96.3388C143.995 98.683 140.815 100 137.5 100ZM150 125C150 128.315 148.683 131.495 146.339 133.839C143.995 136.183 140.815 137.5 137.5 137.5C134.185 137.5 131.005 136.183 128.661 133.839C126.317 131.495 125 128.315 125 125C125 121.685 126.317 118.505 128.661 116.161C131.005 113.817 134.185 112.5 137.5 112.5C140.815 112.5 143.995 113.817 146.339 116.161C148.683 118.505 150 121.685 150 125ZM137.5 175C134.185 175 131.005 173.683 128.661 171.339C126.317 168.995 125 165.815 125 162.5C125 159.185 126.317 156.005 128.661 153.661C131.005 151.317 134.185 150 137.5 150C140.815 150 143.995 151.317 146.339 153.661C148.683 156.005 150 159.185 150 162.5C150 165.815 148.683 168.995 146.339 171.339C143.995 173.683 140.815 175 137.5 175Z" fill="#E6F2FF"/>
</svg>
