<svg width="200" height="200" viewBox="0 0 200 200" fill="none" xmlns="http://www.w3.org/2000/svg">
<g clip-path="url(#clip0_445_142)">
<path d="M68.75 9.375C68.75 4.17969 64.5703 0 59.375 0C54.1797 0 50 4.17969 50 9.375V25C36.2109 25 25 36.2109 25 50H9.375C4.17969 50 0 54.1797 0 59.375C0 64.5703 4.17969 68.75 9.375 68.75H25V90.625H9.375C4.17969 90.625 0 94.8047 0 100C0 105.195 4.17969 109.375 9.375 109.375H25V131.25H9.375C4.17969 131.25 0 135.43 0 140.625C0 145.82 4.17969 150 9.375 150H25C25 163.789 36.2109 175 50 175V190.625C50 195.82 54.1797 200 59.375 200C64.5703 200 68.75 195.82 68.75 190.625V175H90.625V190.625C90.625 195.82 94.8047 200 100 200C105.195 200 109.375 195.82 109.375 190.625V175H131.25V190.625C131.25 195.82 135.43 200 140.625 200C145.82 200 150 195.82 150 190.625V175C163.789 175 175 163.789 175 150H190.625C195.82 150 200 145.82 200 140.625C200 135.43 195.82 131.25 190.625 131.25H175V109.375H190.625C195.82 109.375 200 105.195 200 100C200 94.8047 195.82 90.625 190.625 90.625H175V68.75H190.625C195.82 68.75 200 64.5703 200 59.375C200 54.1797 195.82 50 190.625 50H175C175 36.2109 163.789 25 150 25V9.375C150 4.17969 145.82 0 140.625 0C135.43 0 131.25 4.17969 131.25 9.375V25H109.375V9.375C109.375 4.17969 105.195 0 100 0C94.8047 0 90.625 4.17969 90.625 9.375V25H68.75V9.375ZM62.5 50H137.5C144.414 50 150 55.5859 150 62.5V137.5C150 144.414 144.414 150 137.5 150H62.5C55.5859 150 50 144.414 50 137.5V62.5C50 55.5859 55.5859 50 62.5 50ZM137.5 62.5H62.5V137.5H137.5V62.5Z" fill="#E6F2FF"/>
</g>
<defs>
<clipPath id="clip0_445_142">
<rect width="200" height="200" fill="white"/>
</clipPath>
</defs>
</svg>
