<svg width="200" height="200" viewBox="0 0 200 200" fill="none" xmlns="http://www.w3.org/2000/svg">
<path d="M37.1429 12.5C37.1429 5.58594 31.525 0 24.5714 0C17.6179 0 12 5.58594 12 12.5V25V143.75V187.5C12 194.414 17.6179 200 24.5714 200C31.525 200 37.1429 194.414 37.1429 187.5V137.5L62.4036 131.211C78.55 127.187 95.6393 129.062 110.529 136.445C127.893 145.078 148.046 146.133 166.196 139.336L179.829 134.258C184.739 132.422 188 127.773 188 122.539V25.7812C188 16.7969 178.493 10.9375 170.4 14.9609L166.629 16.8359C148.439 25.8984 127.029 25.8984 108.839 16.8359C95.05 9.96094 79.2179 8.24219 64.25 11.9531L37.1429 18.75V12.5Z" fill="#E6F2FF"/>
</svg>
