<svg width="200" height="200" viewBox="0 0 200 200" fill="none" xmlns="http://www.w3.org/2000/svg">
<path d="M193.711 65.0781C194.961 68.4766 193.906 72.2656 191.211 74.6875L174.297 90.0781C174.727 93.3203 174.961 96.6406 174.961 100C174.961 103.359 174.727 106.68 174.297 109.922L191.211 125.312C193.906 127.734 194.961 131.523 193.711 134.922C191.992 139.57 189.922 144.023 187.539 148.32L185.703 151.484C183.125 155.781 180.234 159.844 177.07 163.672C174.766 166.484 170.938 167.422 167.5 166.328L145.742 159.414C140.508 163.438 134.727 166.797 128.555 169.336L123.672 191.641C122.891 195.195 120.156 198.008 116.563 198.594C111.172 199.492 105.625 199.961 99.961 199.961C94.297 199.961 88.7501 199.492 83.3595 198.594C79.7657 198.008 77.0313 195.195 76.2501 191.641L71.3673 169.336C65.1954 166.797 59.4142 163.438 54.1798 159.414L32.461 166.367C29.0235 167.461 25.1954 166.484 22.8907 163.711C19.7267 159.883 16.836 155.82 14.2579 151.523L12.422 148.359C10.0392 144.062 7.96885 139.609 6.2501 134.961C5.0001 131.563 6.05479 127.773 8.7501 125.352L25.6642 109.961C25.2345 106.68 25.0001 103.359 25.0001 100C25.0001 96.6406 25.2345 93.3203 25.6642 90.0781L8.7501 74.6875C6.05479 72.2656 5.0001 68.4766 6.2501 65.0781C7.96885 60.4297 10.0392 55.9766 12.422 51.6797L14.2579 48.5156C16.836 44.2187 19.7267 40.1563 22.8907 36.3281C25.1954 33.5156 29.0235 32.5781 32.461 33.6719L54.2189 40.5859C59.4532 36.5625 65.2345 33.2031 71.4064 30.6641L76.2892 8.35937C77.0704 4.80469 79.8048 1.99219 83.3985 1.40625C88.7892 0.46875 94.336 0 100 0C105.664 0 111.211 0.46875 116.602 1.36719C120.195 1.95312 122.93 4.76562 123.711 8.32031L128.594 30.625C134.766 33.1641 140.547 36.5234 145.781 40.5469L167.539 33.6328C170.977 32.5391 174.805 33.5156 177.109 36.2891C180.274 40.1172 183.164 44.1797 185.742 48.4766L187.578 51.6406C189.961 55.9375 192.031 60.3906 193.75 65.0391L193.711 65.0781ZM100 131.25C108.288 131.25 116.237 127.958 122.097 122.097C127.958 116.237 131.25 108.288 131.25 100C131.25 91.712 127.958 83.7634 122.097 77.9029C116.237 72.0424 108.288 68.75 100 68.75C91.7121 68.75 83.7635 72.0424 77.903 77.9029C72.0425 83.7634 68.7501 91.712 68.7501 100C68.7501 108.288 72.0425 116.237 77.903 122.097C83.7635 127.958 91.7121 131.25 100 131.25Z" fill="#E6F2FF"/>
</svg>
