<svg width="200" height="200" viewBox="0 0 200 200" fill="none" xmlns="http://www.w3.org/2000/svg">
<path d="M123.203 6.05469C120.976 2.30469 116.875 0 112.5 0C108.125 0 104.023 2.30469 101.797 6.05469L64.2968 68.5547C61.9921 72.4219 61.914 77.2266 64.1405 81.1328C66.3671 85.0391 70.5077 87.4609 74.9999 87.4609H150C154.492 87.4609 158.672 85.0391 160.859 81.1328C163.047 77.2266 163.008 72.4219 160.703 68.5547L123.203 6.05469Z" fill="#4DFF8B"/>
<path d="M85.3553 185.355C75.9785 194.732 63.2608 200 50 200C36.7392 200 24.0215 194.732 14.6447 185.355C5.26784 175.979 0 163.261 0 150C0 136.739 5.26784 124.021 14.6447 114.645C24.0215 105.268 36.7392 100 50 100C63.2608 100 75.9785 105.268 85.3553 114.645C94.7322 124.021 100 136.739 100 150C100 163.261 94.7322 175.979 85.3553 185.355Z" fill="#FED24C"/>
<path d="M112.5 178.125V121.875C112.5 113.242 119.492 106.25 128.125 106.25H184.375C193.008 106.25 200 113.242 200 121.875V178.125C200 186.758 193.008 193.75 184.375 193.75H128.125C119.492 193.75 112.5 186.758 112.5 178.125Z" fill="#4D9CFF"/>
</svg>
