<svg width="200" height="200" viewBox="0 0 200 200" fill="none" xmlns="http://www.w3.org/2000/svg">
<path d="M181.25 175H18.75C8.39453 175 0 166.605 0 156.25V43.75C0 33.3945 8.39453 25 18.75 25H181.25C191.605 25 200 33.3945 200 43.75V156.25C200 166.605 191.605 175 181.25 175ZM43.75 46.875C31.6688 46.875 21.875 56.6688 21.875 68.75C21.875 80.8312 31.6688 90.625 43.75 90.625C55.8312 90.625 65.625 80.8312 65.625 68.75C65.625 56.6688 55.8312 46.875 43.75 46.875ZM25 150H175V106.25L140.814 72.0645C138.984 70.234 136.016 70.234 134.185 72.0645L81.25 125L59.5645 103.314C57.734 101.484 54.766 101.484 52.9352 103.314L25 131.25V150Z" fill="#4D9CFF"/>
<g filter="url(#filter0_d_127_79)">
<path d="M21.875 68.75C21.875 56.6687 31.6687 46.875 43.75 46.875C55.8312 46.875 65.625 56.6687 65.625 68.75C65.625 80.8312 55.8312 90.625 43.75 90.625C31.6687 90.625 21.875 80.8312 21.875 68.75Z" fill="#FEE14C"/>
</g>
<g filter="url(#filter1_d_127_79)">
<path d="M175 150H25V131.25L52.9352 103.314C54.766 101.484 57.734 101.484 59.5645 103.314L81.25 125L134.185 72.0644C136.016 70.234 138.984 70.234 140.814 72.0644L175 106.25V150Z" fill="#4DFF8B"/>
</g>
<defs>
<filter id="filter0_d_127_79" x="1.875" y="26.875" width="83.75" height="83.75" filterUnits="userSpaceOnUse" color-interpolation-filters="sRGB">
<feFlood flood-opacity="0" result="BackgroundImageFix"/>
<feColorMatrix in="SourceAlpha" type="matrix" values="0 0 0 0 0 0 0 0 0 0 0 0 0 0 0 0 0 0 127 0" result="hardAlpha"/>
<feOffset/>
<feGaussianBlur stdDeviation="10"/>
<feColorMatrix type="matrix" values="0 0 0 0 0 0 0 0 0 0 0 0 0 0 0 0 0 0 0.5 0"/>
<feBlend mode="normal" in2="BackgroundImageFix" result="effect1_dropShadow_127_79"/>
<feBlend mode="normal" in="SourceGraphic" in2="effect1_dropShadow_127_79" result="shape"/>
</filter>
<filter id="filter1_d_127_79" x="5" y="50.6916" width="190" height="119.308" filterUnits="userSpaceOnUse" color-interpolation-filters="sRGB">
<feFlood flood-opacity="0" result="BackgroundImageFix"/>
<feColorMatrix in="SourceAlpha" type="matrix" values="0 0 0 0 0 0 0 0 0 0 0 0 0 0 0 0 0 0 127 0" result="hardAlpha"/>
<feOffset/>
<feGaussianBlur stdDeviation="10"/>
<feColorMatrix type="matrix" values="0 0 0 0 0 0 0 0 0 0 0 0 0 0 0 0 0 0 0.5 0"/>
<feBlend mode="normal" in2="BackgroundImageFix" result="effect1_dropShadow_127_79"/>
<feBlend mode="normal" in="SourceGraphic" in2="effect1_dropShadow_127_79" result="shape"/>
</filter>
</defs>
</svg>
