<svg width="200" height="200" viewBox="0 0 200 200" fill="none" xmlns="http://www.w3.org/2000/svg">
<path fill-rule="evenodd" clip-rule="evenodd" d="M116.184 9C113.875 5 108.101 5 105.792 9L82.5996 49.1704C81.6764 50.7695 81.5836 52.5283 82.0998 54.0636C81.3989 54.3808 80.704 54.7089 80.0154 55.0478C79.6528 53.3043 78.3783 51.7573 76.4129 51.2307L38.1765 40.9853C34.4587 39.9891 31.0566 43.3912 32.0528 47.109L42.2982 85.3454C42.8826 87.5263 44.7233 88.8564 46.6948 89.034C46.4057 89.6522 46.1252 90.2753 45.8534 90.903C44.7404 89.6857 42.9026 89.1731 41.1996 89.9672L11.6187 103.761C8.82797 105.062 8.49251 108.897 11.0148 110.663L37.7511 129.384C38.7006 130.049 39.787 130.233 40.787 130.04C40.9883 131.382 41.2269 132.711 41.5016 134.027C40.1776 133.252 38.3459 133.569 37.4348 135.027L23.1418 157.901C21.918 159.859 23.2732 162.408 25.5812 162.489L52.5368 163.43C53.355 163.458 54.0754 163.169 54.6162 162.693C67.6957 179.848 88.3474 190.918 111.585 190.918C151.125 190.918 183.179 158.864 183.179 119.324C183.179 89.8848 165.411 64.5956 140.013 53.5958C140.366 52.1775 140.207 50.6093 139.377 49.1704L116.184 9ZM81.1121 144.848C84.3761 146.192 87.9281 146.864 91.7681 146.864C95.5121 146.864 98.9921 146.192 102.208 144.848C105.472 143.504 108.304 141.656 110.704 139.304C113.104 136.904 114.976 134.12 116.32 130.952C117.664 127.736 118.336 124.28 118.336 120.584C118.336 116.84 117.664 113.384 116.32 110.216C114.976 107 113.08 104.216 110.632 101.864C108.232 99.464 105.4 97.616 102.136 96.32C98.9201 94.976 95.4161 94.304 91.6241 94.304C87.7841 94.304 84.2321 94.976 80.9681 96.32C77.7521 97.616 74.9441 99.464 72.5441 101.864C70.1441 104.216 68.2721 106.976 66.9281 110.144C65.5841 113.312 64.9121 116.768 64.9121 120.512C64.9121 124.208 65.5841 127.664 66.9281 130.88C68.2721 134.048 70.1681 136.832 72.6161 139.232C75.0641 141.632 77.8961 143.504 81.1121 144.848ZM99.5441 134.552C97.2881 135.896 94.6481 136.568 91.6241 136.568C89.3681 136.568 87.3041 136.184 85.4321 135.416C83.5601 134.648 81.9521 133.568 80.6081 132.176C79.3121 130.736 78.3041 129.032 77.5841 127.064C76.8641 125.096 76.5041 122.912 76.5041 120.512C76.5041 117.296 77.1281 114.512 78.3761 112.16C79.6241 109.76 81.3761 107.912 83.6321 106.616C85.9361 105.272 88.6001 104.6 91.6241 104.6C93.8801 104.6 95.9201 104.984 97.7441 105.752C99.6161 106.472 101.224 107.552 102.568 108.992C103.912 110.384 104.944 112.064 105.664 114.032C106.384 115.952 106.744 118.112 106.744 120.512C106.744 123.68 106.12 126.488 104.872 128.936C103.624 131.336 101.848 133.208 99.5441 134.552ZM128.781 144.776C131.805 146.12 135.405 146.792 139.581 146.792C145.677 146.792 150.453 145.424 153.909 142.688C157.365 139.904 159.093 136.088 159.093 131.24C159.093 128.6 158.661 126.392 157.797 124.616C156.933 122.792 155.781 121.304 154.341 120.152C152.949 118.952 151.413 117.968 149.733 117.2C148.053 116.432 146.349 115.76 144.621 115.184C142.941 114.608 141.381 114.032 139.941 113.456C138.549 112.88 137.421 112.208 136.557 111.44C135.693 110.624 135.261 109.568 135.261 108.272C135.261 106.88 135.837 105.824 136.989 105.104C138.141 104.336 139.701 103.952 141.669 103.952C143.637 103.952 145.389 104.336 146.925 105.104C148.509 105.872 150.069 107.048 151.605 108.632L158.949 101.36C157.029 99.2 154.581 97.496 151.605 96.248C148.677 95 145.437 94.376 141.885 94.376C138.381 94.376 135.285 94.976 132.597 96.176C129.909 97.328 127.797 99.032 126.261 101.288C124.773 103.544 124.029 106.232 124.029 109.352C124.029 111.944 124.461 114.104 125.325 115.832C126.189 117.512 127.317 118.928 128.709 120.08C130.149 121.184 131.709 122.12 133.389 122.888C135.069 123.608 136.749 124.256 138.429 124.832C140.157 125.408 141.717 126.008 143.109 126.632C144.549 127.256 145.701 128 146.565 128.864C147.429 129.728 147.861 130.856 147.861 132.248C147.861 133.784 147.189 134.984 145.845 135.848C144.549 136.712 142.701 137.144 140.301 137.144C137.661 137.144 135.333 136.64 133.317 135.632C131.349 134.576 129.549 133.112 127.917 131.24L120.573 138.512C123.069 141.296 125.805 143.384 128.781 144.776Z" fill="#E6F2FF"/>
</svg>
