<svg width="200" height="200" viewBox="0 0 200 200" fill="none" xmlns="http://www.w3.org/2000/svg">
<g clip-path="url(#clip0_10_21)">
<path d="M105.792 9C108.101 5 113.875 5 116.184 9L139.377 49.1704C141.686 53.1704 138.799 58.1704 134.181 58.1704H87.7958C83.177 58.1704 80.2902 53.1704 82.5996 49.1704L105.792 9Z" fill="#10AC84"/>
<path d="M32.0528 47.109C31.0566 43.3911 34.4587 39.989 38.1765 40.9852L76.4129 51.2306C80.1308 52.2268 81.376 56.8742 78.6544 59.5958L50.6634 87.5868C47.9417 90.3085 43.2944 89.0632 42.2982 85.3454L32.0528 47.109Z" fill="#10AC84"/>
<path d="M11.0149 110.663C8.49254 108.897 8.828 105.062 11.6187 103.761L41.1996 89.9673C43.9903 88.6659 47.1433 90.8736 46.8749 93.9411L44.0302 126.456C43.7619 129.523 40.2735 131.15 37.7511 129.384L11.0149 110.663Z" fill="#10AC84"/>
<path d="M25.5813 162.489C23.2733 162.408 21.918 159.859 23.1418 157.901L37.4348 135.027C38.6586 133.069 41.5436 133.169 42.6278 135.208L55.2904 159.023C56.3746 161.062 54.8449 163.511 52.5369 163.43L25.5813 162.489Z" fill="#10AC84"/>
<g filter="url(#filter0_d_10_21)">
<circle cx="111.585" cy="119.324" r="71.5944" fill="#1DD1A1"/>
</g>
<g filter="url(#filter1_d_10_21)">
<path d="M112.006 117.595V119.669C112.006 123.583 111.455 127.099 110.353 130.216C109.275 133.309 107.74 135.958 105.748 138.161C103.756 140.341 101.4 142.016 98.6814 143.188C95.9627 144.337 92.9627 144.911 89.6814 144.911C86.3768 144.911 83.3533 144.337 80.6111 143.188C77.8924 142.016 75.5252 140.341 73.5096 138.161C71.5174 135.958 69.9705 133.309 68.8689 130.216C67.7908 127.099 67.2518 123.583 67.2518 119.669V117.595C67.2518 113.681 67.7908 110.165 68.8689 107.048C69.9705 103.931 71.5057 101.282 73.4744 99.1024C75.4666 96.8993 77.8221 95.2235 80.5408 94.0751C83.283 92.9032 86.3064 92.3173 89.6111 92.3173C92.8924 92.3173 95.8924 92.9032 98.6111 94.0751C101.353 95.2235 103.721 96.8993 105.713 99.1024C107.705 101.282 109.252 103.931 110.353 107.048C111.455 110.165 112.006 113.681 112.006 117.595ZM99.49 119.669V117.524C99.49 114.993 99.2674 112.766 98.8221 110.845C98.4002 108.899 97.7674 107.27 96.9236 105.958C96.0799 104.645 95.0369 103.661 93.7947 103.005C92.576 102.325 91.1814 101.985 89.6111 101.985C87.9705 101.985 86.5408 102.325 85.3221 103.005C84.1033 103.661 83.0838 104.645 82.2635 105.958C81.4432 107.27 80.8221 108.899 80.4002 110.845C80.0018 112.766 79.8025 114.993 79.8025 117.524V119.669C79.8025 122.177 80.0018 124.403 80.4002 126.349C80.8221 128.27 81.4432 129.899 82.2635 131.235C83.1072 132.571 84.1385 133.579 85.3572 134.259C86.5994 134.938 88.0408 135.278 89.6814 135.278C91.2518 135.278 92.6463 134.938 93.865 134.259C95.0838 133.579 96.1033 132.571 96.9236 131.235C97.7674 129.899 98.4002 128.27 98.8221 126.349C99.2674 124.403 99.49 122.177 99.49 119.669ZM144.771 130.602C144.771 129.806 144.654 129.091 144.42 128.458C144.185 127.802 143.752 127.192 143.119 126.63C142.486 126.067 141.572 125.505 140.377 124.942C139.205 124.356 137.658 123.747 135.736 123.114C133.486 122.364 131.318 121.52 129.232 120.583C127.146 119.622 125.283 118.509 123.642 117.243C122.002 115.954 120.701 114.454 119.74 112.743C118.779 111.009 118.299 108.993 118.299 106.696C118.299 104.493 118.791 102.513 119.775 100.755C120.76 98.9735 122.131 97.4618 123.888 96.2196C125.67 94.954 127.756 93.993 130.146 93.3368C132.537 92.6571 135.15 92.3173 137.986 92.3173C141.736 92.3173 145.041 92.9735 147.9 94.286C150.783 95.5751 153.033 97.4149 154.65 99.8055C156.291 102.173 157.111 104.974 157.111 108.208H144.842C144.842 106.919 144.572 105.782 144.033 104.798C143.517 103.813 142.732 103.04 141.678 102.477C140.623 101.915 139.299 101.634 137.705 101.634C136.158 101.634 134.857 101.868 133.803 102.337C132.748 102.806 131.951 103.438 131.412 104.235C130.873 105.009 130.603 105.864 130.603 106.802C130.603 107.575 130.814 108.278 131.236 108.911C131.681 109.52 132.303 110.095 133.099 110.634C133.92 111.173 134.904 111.688 136.053 112.181C137.224 112.673 138.537 113.153 139.99 113.622C142.709 114.489 145.123 115.462 147.232 116.54C149.365 117.595 151.158 118.802 152.611 120.161C154.088 121.497 155.201 123.02 155.951 124.731C156.724 126.442 157.111 128.376 157.111 130.532C157.111 132.829 156.666 134.868 155.775 136.649C154.885 138.431 153.607 139.942 151.943 141.184C150.279 142.403 148.287 143.329 145.967 143.962C143.646 144.595 141.056 144.911 138.197 144.911C135.572 144.911 132.982 144.583 130.428 143.927C127.896 143.247 125.599 142.216 123.537 140.833C121.474 139.427 119.822 137.634 118.58 135.454C117.361 133.251 116.752 130.638 116.752 127.614H129.127C129.127 129.114 129.326 130.38 129.724 131.411C130.123 132.442 130.709 133.274 131.482 133.907C132.256 134.516 133.205 134.962 134.33 135.243C135.455 135.501 136.744 135.63 138.197 135.63C139.767 135.63 141.033 135.407 141.994 134.962C142.955 134.493 143.658 133.884 144.103 133.134C144.549 132.36 144.771 131.516 144.771 130.602Z" fill="#222F3E"/>
</g>
</g>
<defs>
<filter id="filter0_d_10_21" x="19.9905" y="27.7296" width="183.189" height="183.189" filterUnits="userSpaceOnUse" color-interpolation-filters="sRGB">
<feFlood flood-opacity="0" result="BackgroundImageFix"/>
<feColorMatrix in="SourceAlpha" type="matrix" values="0 0 0 0 0 0 0 0 0 0 0 0 0 0 0 0 0 0 127 0" result="hardAlpha"/>
<feOffset/>
<feGaussianBlur stdDeviation="10"/>
<feComposite in2="hardAlpha" operator="out"/>
<feColorMatrix type="matrix" values="0 0 0 0 0 0 0 0 0 0 0 0 0 0 0 0 0 0 0.5 0"/>
<feBlend mode="normal" in2="BackgroundImageFix" result="effect1_dropShadow_10_21"/>
<feBlend mode="normal" in="SourceGraphic" in2="effect1_dropShadow_10_21" result="shape"/>
</filter>
<filter id="filter1_d_10_21" x="47.2517" y="72.3173" width="129.859" height="92.5938" filterUnits="userSpaceOnUse" color-interpolation-filters="sRGB">
<feFlood flood-opacity="0" result="BackgroundImageFix"/>
<feColorMatrix in="SourceAlpha" type="matrix" values="0 0 0 0 0 0 0 0 0 0 0 0 0 0 0 0 0 0 127 0" result="hardAlpha"/>
<feOffset/>
<feGaussianBlur stdDeviation="10"/>
<feComposite in2="hardAlpha" operator="out"/>
<feColorMatrix type="matrix" values="0 0 0 0 0 0 0 0 0 0 0 0 0 0 0 0 0 0 0.5 0"/>
<feBlend mode="normal" in2="BackgroundImageFix" result="effect1_dropShadow_10_21"/>
<feBlend mode="normal" in="SourceGraphic" in2="effect1_dropShadow_10_21" result="shape"/>
</filter>
<clipPath id="clip0_10_21">
<rect width="200" height="200" fill="white"/>
</clipPath>
</defs>
</svg>
