<svg width="200" height="200" viewBox="0 0 200 200" fill="none" xmlns="http://www.w3.org/2000/svg">
<g clip-path="url(#clip0_21_81)">
<path d="M105.792 9C108.101 5 113.875 5 116.184 9L139.377 49.1704C141.686 53.1704 138.799 58.1704 134.181 58.1704H87.7958C83.177 58.1704 80.2902 53.1704 82.5996 49.1704L105.792 9Z" fill="#10AC84"/>
<path d="M32.0528 47.109C31.0566 43.3911 34.4587 39.989 38.1765 40.9852L76.413 51.2306C80.1308 52.2268 81.376 56.8742 78.6544 59.5958L50.6634 87.5868C47.9417 90.3085 43.2944 89.0632 42.2982 85.3454L32.0528 47.109Z" fill="#10AC84"/>
<path d="M11.0149 110.663C8.49254 108.897 8.828 105.062 11.6187 103.761L41.1996 89.9673C43.9903 88.6659 47.1433 90.8736 46.8749 93.9411L44.0302 126.456C43.7619 129.523 40.2735 131.15 37.7511 129.384L11.0149 110.663Z" fill="#10AC84"/>
<path d="M25.5813 162.489C23.2733 162.408 21.918 159.859 23.1418 157.901L37.4348 135.027C38.6586 133.069 41.5436 133.169 42.6278 135.208L55.2904 159.023C56.3746 161.062 54.8449 163.511 52.5369 163.43L25.5813 162.489Z" fill="#10AC84"/>
<g filter="url(#filter0_d_21_81)">
<circle cx="111.585" cy="119.324" r="71.5944" fill="#1DD1A1"/>
</g>
<g filter="url(#filter1_d_21_81)">
<path d="M111.827 117.595V119.669C111.827 123.583 111.276 127.099 110.174 130.216C109.096 133.309 107.561 135.958 105.569 138.161C103.577 140.341 101.221 142.016 98.5026 143.188C95.7838 144.337 92.7838 144.911 89.5026 144.911C86.1979 144.911 83.1744 144.337 80.4323 143.188C77.7135 142.016 75.3463 140.341 73.3307 138.161C71.3385 135.958 69.7916 133.309 68.6901 130.216C67.6119 127.099 67.0729 123.583 67.0729 119.669V117.595C67.0729 113.681 67.6119 110.165 68.6901 107.048C69.7916 103.931 71.3268 101.282 73.2955 99.1024C75.2877 96.8993 77.6432 95.2235 80.3619 94.0751C83.1041 92.9032 86.1276 92.3173 89.4323 92.3173C92.7135 92.3173 95.7135 92.9032 98.4323 94.0751C101.174 95.2235 103.542 96.8993 105.534 99.1024C107.526 101.282 109.073 103.931 110.174 107.048C111.276 110.165 111.827 113.681 111.827 117.595ZM99.3112 119.669V117.524C99.3112 114.993 99.0885 112.766 98.6432 110.845C98.2213 108.899 97.5885 107.27 96.7448 105.958C95.901 104.645 94.858 103.661 93.6158 103.005C92.3971 102.325 91.0026 101.985 89.4323 101.985C87.7916 101.985 86.3619 102.325 85.1432 103.005C83.9244 103.661 82.9049 104.645 82.0846 105.958C81.2643 107.27 80.6432 108.899 80.2213 110.845C79.8229 112.766 79.6237 114.993 79.6237 117.524V119.669C79.6237 122.177 79.8229 124.403 80.2213 126.349C80.6432 128.27 81.2643 129.899 82.0846 131.235C82.9283 132.571 83.9596 133.579 85.1783 134.259C86.4205 134.938 87.8619 135.278 89.5026 135.278C91.0729 135.278 92.4674 134.938 93.6862 134.259C94.9049 133.579 95.9244 132.571 96.7448 131.235C97.5885 129.899 98.2213 128.27 98.6432 126.349C99.0885 124.403 99.3112 122.177 99.3112 119.669ZM144.592 130.602C144.592 129.806 144.475 129.091 144.241 128.458C144.006 127.802 143.573 127.192 142.94 126.63C142.307 126.067 141.393 125.505 140.198 124.942C139.026 124.356 137.479 123.747 135.557 123.114C133.307 122.364 131.139 121.52 129.053 120.583C126.967 119.622 125.104 118.509 123.464 117.243C121.823 115.954 120.522 114.454 119.561 112.743C118.6 111.009 118.12 108.993 118.12 106.696C118.12 104.493 118.612 102.513 119.596 100.755C120.581 98.9735 121.952 97.4618 123.71 96.2196C125.491 94.954 127.577 93.993 129.967 93.3368C132.358 92.6571 134.971 92.3173 137.807 92.3173C141.557 92.3173 144.862 92.9735 147.721 94.286C150.604 95.5751 152.854 97.4149 154.471 99.8055C156.112 102.173 156.932 104.974 156.932 108.208H144.663C144.663 106.919 144.393 105.782 143.854 104.798C143.339 103.813 142.553 103.04 141.499 102.477C140.444 101.915 139.12 101.634 137.526 101.634C135.979 101.634 134.678 101.868 133.624 102.337C132.569 102.806 131.772 103.438 131.233 104.235C130.694 105.009 130.424 105.864 130.424 106.802C130.424 107.575 130.635 108.278 131.057 108.911C131.503 109.52 132.124 110.095 132.921 110.634C133.741 111.173 134.725 111.688 135.874 112.181C137.046 112.673 138.358 113.153 139.811 113.622C142.53 114.489 144.944 115.462 147.053 116.54C149.186 117.595 150.979 118.802 152.432 120.161C153.909 121.497 155.022 123.02 155.772 124.731C156.546 126.442 156.932 128.376 156.932 130.532C156.932 132.829 156.487 134.868 155.596 136.649C154.706 138.431 153.428 139.942 151.764 141.184C150.1 142.403 148.108 143.329 145.788 143.962C143.467 144.595 140.878 144.911 138.018 144.911C135.393 144.911 132.803 144.583 130.249 143.927C127.717 143.247 125.421 142.216 123.358 140.833C121.296 139.427 119.643 137.634 118.401 135.454C117.182 133.251 116.573 130.638 116.573 127.614H128.948C128.948 129.114 129.147 130.38 129.546 131.411C129.944 132.442 130.53 133.274 131.303 133.907C132.077 134.516 133.026 134.962 134.151 135.243C135.276 135.501 136.565 135.63 138.018 135.63C139.589 135.63 140.854 135.407 141.815 134.962C142.776 134.493 143.479 133.884 143.924 133.134C144.37 132.36 144.592 131.516 144.592 130.602Z" fill="#222F3E"/>
</g>
</g>
<defs>
<filter id="filter0_d_21_81" x="19.9905" y="27.7296" width="183.189" height="183.189" filterUnits="userSpaceOnUse" color-interpolation-filters="sRGB">
<feFlood flood-opacity="0" result="BackgroundImageFix"/>
<feColorMatrix in="SourceAlpha" type="matrix" values="0 0 0 0 0 0 0 0 0 0 0 0 0 0 0 0 0 0 127 0" result="hardAlpha"/>
<feOffset/>
<feGaussianBlur stdDeviation="10"/>
<feComposite in2="hardAlpha" operator="out"/>
<feColorMatrix type="matrix" values="0 0 0 0 0 0 0 0 0 0 0 0 0 0 0 0 0 0 0.5 0"/>
<feBlend mode="normal" in2="BackgroundImageFix" result="effect1_dropShadow_21_81"/>
<feBlend mode="normal" in="SourceGraphic" in2="effect1_dropShadow_21_81" result="shape"/>
</filter>
<filter id="filter1_d_21_81" x="47.0729" y="72.3173" width="129.859" height="92.5938" filterUnits="userSpaceOnUse" color-interpolation-filters="sRGB">
<feFlood flood-opacity="0" result="BackgroundImageFix"/>
<feColorMatrix in="SourceAlpha" type="matrix" values="0 0 0 0 0 0 0 0 0 0 0 0 0 0 0 0 0 0 127 0" result="hardAlpha"/>
<feOffset/>
<feGaussianBlur stdDeviation="10"/>
<feComposite in2="hardAlpha" operator="out"/>
<feColorMatrix type="matrix" values="0 0 0 0 0 0 0 0 0 0 0 0 0 0 0 0 0 0 0.5 0"/>
<feBlend mode="normal" in2="BackgroundImageFix" result="effect1_dropShadow_21_81"/>
<feBlend mode="normal" in="SourceGraphic" in2="effect1_dropShadow_21_81" result="shape"/>
</filter>
<clipPath id="clip0_21_81">
<rect width="200" height="200" fill="white"/>
</clipPath>
</defs>
</svg>
