<svg width="150" height="200" viewBox="0 0 150 200" fill="none" xmlns="http://www.w3.org/2000/svg">
<mask id="mask0_150_59" style="mask-type:alpha" maskUnits="userSpaceOnUse" x="0" y="0" width="150" height="200">
<path d="M25 0C11.1929 0 0 11.1929 0 25V175C0 188.807 11.1929 200 25 200H125C138.807 200 150 188.807 150 175V62.5L87.5 0H25Z" fill="#A0A9B3"/>
</mask>
<g mask="url(#mask0_150_59)">
<path d="M25 0C11.1929 0 0 11.1929 0 25V175C0 188.807 11.1929 200 25 200H125C138.807 200 150 188.807 150 175V62.5L87.5 0H25Z" fill="#E6F2FF"/>
<g filter="url(#filter0_d_150_59)">
<g clip-path="url(#clip0_150_59)">
<path d="M87.5 62.5L150 62.5L87.5 1.78815e-07V62.5Z" fill="#E6F2FF"/>
</g>
</g>
<path d="M75.5 174C86.7717 174 97.5817 169.522 105.552 161.552C113.522 153.582 118 142.772 118 131.5C118 120.228 113.522 109.418 105.552 101.448C97.5817 93.4777 86.7717 89 75.5 89C64.2283 89 53.4183 93.4777 45.448 101.448C37.4777 109.418 33 120.228 33 131.5C33 142.772 37.4777 153.582 45.448 161.552C53.4183 169.522 64.2283 174 75.5 174ZM68.8594 144.781H72.8438V134.156H68.8594C66.6514 134.156 64.875 132.38 64.875 130.172C64.875 127.964 66.6514 126.188 68.8594 126.188H76.8281C79.0361 126.188 80.8125 127.964 80.8125 130.172V144.781H82.1406C84.3486 144.781 86.125 146.558 86.125 148.766C86.125 150.974 84.3486 152.75 82.1406 152.75H68.8594C66.6514 152.75 64.875 150.974 64.875 148.766C64.875 146.558 66.6514 144.781 68.8594 144.781ZM75.5 110.25C76.909 110.25 78.2602 110.81 79.2565 111.806C80.2528 112.802 80.8125 114.154 80.8125 115.562C80.8125 116.971 80.2528 118.323 79.2565 119.319C78.2602 120.315 76.909 120.875 75.5 120.875C74.091 120.875 72.7398 120.315 71.7435 119.319C70.7472 118.323 70.1875 116.971 70.1875 115.562C70.1875 114.154 70.7472 112.802 71.7435 111.806C72.7398 110.81 74.091 110.25 75.5 110.25Z" fill="#1E262E"/>
</g>
<defs>
<filter id="filter0_d_150_59" x="65.0281" y="-139.972" width="224.944" height="224.944" filterUnits="userSpaceOnUse" color-interpolation-filters="sRGB">
<feFlood flood-opacity="0" result="BackgroundImageFix"/>
<feColorMatrix in="SourceAlpha" type="matrix" values="0 0 0 0 0 0 0 0 0 0 0 0 0 0 0 0 0 0 127 0" result="hardAlpha"/>
<feOffset/>
<feGaussianBlur stdDeviation="11.236"/>
<feColorMatrix type="matrix" values="0 0 0 0 0 0 0 0 0 0 0 0 0 0 0 0 0 0 0.5 0"/>
<feBlend mode="normal" in2="BackgroundImageFix" result="effect1_dropShadow_150_59"/>
<feBlend mode="normal" in="SourceGraphic" in2="effect1_dropShadow_150_59" result="shape"/>
</filter>
<clipPath id="clip0_150_59">
<rect x="87.5" y="-117.5" width="180" height="180" rx="25" fill="white"/>
</clipPath>
</defs>
</svg>
