<svg width="200" height="176" viewBox="0 0 200 176" fill="none" xmlns="http://www.w3.org/2000/svg">
<mask id="mask0_146_57" style="mask-type:alpha" maskUnits="userSpaceOnUse" x="0" y="0" width="200" height="176">
<path d="M25 175.5H175C188.789 175.5 200 164.289 200 150.5V50.5C200 36.7109 188.789 25.5 175 25.5H112.5C108.555 25.5 104.844 23.6641 102.5 20.5L95 10.5C90.2734 4.21094 82.8516 0.5 75 0.5H25C11.2109 0.5 0 11.7109 0 25.5V150.5C0 164.289 11.2109 175.5 25 175.5Z" fill="#B39336"/>
</mask>
<g mask="url(#mask0_146_57)">
<path d="M25 175.5H175C188.789 175.5 200 164.289 200 150.5V50.5C200 36.7109 188.789 25.5 175 25.5H112.5C108.555 25.5 104.844 23.6641 102.5 20.5L95 10.5C90.2734 4.21094 82.8516 0.5 75 0.5H25C11.2109 0.5 0 11.7109 0 25.5V150.5C0 164.289 11.2109 175.5 25 175.5Z" fill="#FF974D"/>
<g filter="url(#filter0_d_146_57)">
<rect y="37" width="200" height="139" rx="25" fill="#FED24C"/>
</g>
<path d="M58 106.5C58 117.772 62.4777 128.582 70.448 136.552C78.4183 144.522 89.2283 149 100.5 149C111.772 149 122.582 144.522 130.552 136.552C138.522 128.582 143 117.772 143 106.5C143 95.2283 138.522 84.4183 130.552 76.448C122.582 68.4777 111.772 64 100.5 64C89.2283 64 78.4183 68.4777 70.448 76.448C62.4777 84.4183 58 95.2283 58 106.5Z" fill="#FED24C"/>
<path d="M58 106.5C58 117.772 62.4777 128.582 70.448 136.552C78.4183 144.522 89.2283 149 100.5 149C111.772 149 122.582 144.522 130.552 136.552C138.522 128.582 143 117.772 143 106.5C143 95.2283 138.522 84.4183 130.552 76.448C122.582 68.4777 111.772 64 100.5 64C89.2283 64 78.4183 68.4777 70.448 76.448C62.4777 84.4183 58 95.2283 58 106.5ZM104.65 127.916C103.09 129.477 100.566 129.477 99.0225 127.916C97.4785 126.355 97.4619 123.832 99.0225 122.288L110.81 110.501L80.5781 110.484C78.3701 110.484 76.5938 108.708 76.5938 106.5C76.5938 104.292 78.3701 102.516 80.5781 102.516H110.81L99.0225 90.7285C97.4619 89.168 97.4619 86.6445 99.0225 85.1006C100.583 83.5566 103.106 83.54 104.65 85.1006L123.244 103.678C124.805 105.238 124.805 107.762 123.244 109.306L104.65 127.916Z" fill="#1E262E"/>
</g>
<defs>
<filter id="filter0_d_146_57" x="-20" y="17" width="240" height="179" filterUnits="userSpaceOnUse" color-interpolation-filters="sRGB">
<feFlood flood-opacity="0" result="BackgroundImageFix"/>
<feColorMatrix in="SourceAlpha" type="matrix" values="0 0 0 0 0 0 0 0 0 0 0 0 0 0 0 0 0 0 127 0" result="hardAlpha"/>
<feOffset/>
<feGaussianBlur stdDeviation="10"/>
<feColorMatrix type="matrix" values="0 0 0 0 0 0 0 0 0 0 0 0 0 0 0 0 0 0 0.5 0"/>
<feBlend mode="normal" in2="BackgroundImageFix" result="effect1_dropShadow_146_57"/>
<feBlend mode="normal" in="SourceGraphic" in2="effect1_dropShadow_146_57" result="shape"/>
</filter>
</defs>
</svg>
