<svg width="200" height="176" viewBox="0 0 200 176" fill="none" xmlns="http://www.w3.org/2000/svg">
<mask id="mask0_146_93" style="mask-type:alpha" maskUnits="userSpaceOnUse" x="0" y="0" width="200" height="176">
<path d="M25 175.5H175C188.789 175.5 200 164.289 200 150.5V50.5C200 36.7109 188.789 25.5 175 25.5H112.5C108.555 25.5 104.844 23.6641 102.5 20.5L95 10.5C90.2734 4.21094 82.8516 0.5 75 0.5H25C11.2109 0.5 0 11.7109 0 25.5V150.5C0 164.289 11.2109 175.5 25 175.5Z" fill="#B39336"/>
</mask>
<g mask="url(#mask0_146_93)">
<path d="M25 175.5H175C188.789 175.5 200 164.289 200 150.5V50.5C200 36.7109 188.789 25.5 175 25.5H112.5C108.555 25.5 104.844 23.6641 102.5 20.5L95 10.5C90.2734 4.21094 82.8516 0.5 75 0.5H25C11.2109 0.5 0 11.7109 0 25.5V150.5C0 164.289 11.2109 175.5 25 175.5Z" fill="#FF974D"/>
<g filter="url(#filter0_d_146_93)">
<rect y="37" width="200" height="139" rx="25" fill="#FED24C"/>
</g>
<path d="M52 76.1429C52 69.4453 57.4373 64 64.125 64H136.875C143.563 64 149 69.4453 149 76.1429V136.857C149 143.555 143.563 149 136.875 149H64.125C57.4373 149 52 143.555 52 136.857V76.1429Z" fill="#FED24C"/>
<path d="M52 76.1429C52 69.4453 57.4373 64 64.125 64H136.875C143.563 64 149 69.4453 149 76.1429V136.857C149 143.555 143.563 149 136.875 149H64.125C57.4373 149 52 143.555 52 136.857V76.1429ZM113.345 96.3493C112.492 95.0971 111.09 94.3571 109.594 94.3571C108.097 94.3571 106.676 95.0971 105.843 96.3493L89.3602 120.559L84.3396 114.279C83.4682 113.198 82.1609 112.571 80.7969 112.571C79.4328 112.571 78.1066 113.198 77.2541 114.279L65.1291 129.458C64.0303 130.824 63.8219 132.702 64.5797 134.277C65.3375 135.852 66.9289 136.857 68.6719 136.857H86.8594H92.9219H132.328C134.014 136.857 135.568 135.927 136.345 134.429C137.121 132.93 137.027 131.127 136.079 129.742L113.345 96.3493ZM73.2188 94.3571C75.6306 94.3571 77.9436 93.3976 79.649 91.6897C81.3544 89.9818 82.3125 87.6654 82.3125 85.25C82.3125 82.8346 81.3544 80.5182 79.649 78.8103C77.9436 77.1024 75.6306 76.1429 73.2188 76.1429C70.8069 76.1429 68.4939 77.1024 66.7885 78.8103C65.0831 80.5182 64.125 82.8346 64.125 85.25C64.125 87.6654 65.0831 89.9818 66.7885 91.6897C68.4939 93.3976 70.8069 94.3571 73.2188 94.3571Z" fill="#1E262E"/>
</g>
<defs>
<filter id="filter0_d_146_93" x="-20" y="17" width="240" height="179" filterUnits="userSpaceOnUse" color-interpolation-filters="sRGB">
<feFlood flood-opacity="0" result="BackgroundImageFix"/>
<feColorMatrix in="SourceAlpha" type="matrix" values="0 0 0 0 0 0 0 0 0 0 0 0 0 0 0 0 0 0 127 0" result="hardAlpha"/>
<feOffset/>
<feGaussianBlur stdDeviation="10"/>
<feColorMatrix type="matrix" values="0 0 0 0 0 0 0 0 0 0 0 0 0 0 0 0 0 0 0.5 0"/>
<feBlend mode="normal" in2="BackgroundImageFix" result="effect1_dropShadow_146_93"/>
<feBlend mode="normal" in="SourceGraphic" in2="effect1_dropShadow_146_93" result="shape"/>
</filter>
</defs>
</svg>
