<svg width="200" height="200" viewBox="0 0 200 200" fill="none" xmlns="http://www.w3.org/2000/svg">
<rect x="15" y="15" width="170" height="170" rx="42" fill="#1DD1A1"/>
<g filter="url(#filter0_d_63_42)">
<path d="M64 58.0132V142.001C64 145.319 61.3188 148 58 148C54.6812 148 52 145.319 52 142.001V58.0132C52 54.695 54.6812 52.0141 58 52.0141C61.3188 52.0141 64 54.695 64 58.0132ZM71.65 114.78C71.0875 114.949 70.525 115.099 70 115.267V54.545C74.7812 53.2139 80.6875 52.0141 86.5 52.0141C93.3438 52.0141 99.3063 53.7201 104.425 55.1824L104.669 55.2574C110.012 56.7759 114.494 58.0132 119.5 58.0132C124.525 58.0132 129.419 56.7384 133.188 55.3699C135.044 54.695 136.544 54.0201 137.575 53.5326C138.081 53.2889 138.475 53.0827 138.738 52.9515C138.869 52.8765 138.944 52.839 139 52.8015L139.038 52.7828C140.894 51.7329 143.181 51.7329 145.019 52.8203C146.856 53.9076 148 55.8761 148 58.0132V106.006C148 108.275 146.725 110.356 144.681 111.368L142 106.006C144.681 111.368 144.681 111.368 144.681 111.368H144.663L144.625 111.387L144.494 111.462C144.381 111.518 144.212 111.593 144.025 111.687C143.612 111.874 143.05 112.137 142.337 112.436C140.894 113.055 138.869 113.861 136.431 114.667C131.594 116.298 124.9 118.004 118 118.004C111.062 118.004 105.775 116.242 101.312 114.761L101.125 114.705C96.625 113.205 92.9312 112.005 88 112.005C82.8438 112.005 76.7313 113.318 71.65 114.78Z" fill="#EE5253"/>
</g>
<defs>
<filter id="filter0_d_63_42" x="32" y="32" width="136" height="136" filterUnits="userSpaceOnUse" color-interpolation-filters="sRGB">
<feFlood flood-opacity="0" result="BackgroundImageFix"/>
<feColorMatrix in="SourceAlpha" type="matrix" values="0 0 0 0 0 0 0 0 0 0 0 0 0 0 0 0 0 0 127 0" result="hardAlpha"/>
<feOffset/>
<feGaussianBlur stdDeviation="10"/>
<feComposite in2="hardAlpha" operator="out"/>
<feColorMatrix type="matrix" values="0 0 0 0 0 0 0 0 0 0 0 0 0 0 0 0 0 0 0.5 0"/>
<feBlend mode="normal" in2="BackgroundImageFix" result="effect1_dropShadow_63_42"/>
<feBlend mode="normal" in="SourceGraphic" in2="effect1_dropShadow_63_42" result="shape"/>
</filter>
</defs>
</svg>
