<svg width="200" height="200" viewBox="0 0 200 200" fill="none" xmlns="http://www.w3.org/2000/svg">
<g clip-path="url(#clip0_355_231)">
<path fill-rule="evenodd" clip-rule="evenodd" d="M113.256 8.002C114.982 8.0516 116.551 9.01841 117.371 10.5382L133.637 40.6794C134.457 42.1992 134.404 44.0412 133.498 45.5114C132.592 46.9816 130.97 47.8568 129.244 47.8072L95.0081 46.8235C93.2818 46.7739 91.7131 45.8071 90.8929 44.2873C90.0727 42.7674 90.1256 40.9255 91.0317 39.4553L109.002 10.2978C109.908 8.82754 111.529 7.9524 113.256 8.002Z" fill="#36B39E"/>
<path fill-rule="evenodd" clip-rule="evenodd" d="M47.7275 32.1412C48.9768 31.2384 50.6129 31.0707 52.0194 31.7012L79.9132 44.2055C81.3197 44.836 82.283 46.169 82.4402 47.7023C82.5975 49.2356 81.9247 50.7363 80.6754 51.6391L55.8995 69.5438C54.6502 70.4466 53.0141 70.6144 51.6076 69.9838C50.2011 69.3533 49.2378 68.0204 49.0806 66.487L45.9627 36.0781C45.8055 34.5448 46.4782 33.0441 47.7275 32.1412Z" fill="#36B39E"/>
<path fill-rule="evenodd" clip-rule="evenodd" d="M13.2448 83.6071C13.7186 82.3156 14.8454 81.3749 16.2008 81.1395L43.0806 76.4704C44.4359 76.2349 45.8139 76.7405 46.6955 77.7965C47.5771 78.8526 47.8283 80.2988 47.3545 81.5903L37.9582 107.203C37.4844 108.495 36.3576 109.436 35.0023 109.671C33.6469 109.906 32.2689 109.401 31.3873 108.345L13.9038 87.4008C13.0223 86.3447 12.7711 84.8986 13.2448 83.6071Z" fill="#36B39E"/>
<path fill-rule="evenodd" clip-rule="evenodd" d="M12.0673 138.697C11.8256 137.493 12.2445 136.252 13.1661 135.441L31.4437 119.353C32.3653 118.541 33.6497 118.283 34.813 118.676C35.9764 119.069 36.8419 120.052 37.0837 121.256L41.8774 145.129C42.1191 146.332 41.7003 147.574 40.7787 148.385C39.8571 149.196 38.5727 149.454 37.4093 149.061L14.3379 141.276C13.1746 140.884 12.3091 139.901 12.0673 138.697Z" fill="#36B39E"/>
<path fill-rule="evenodd" clip-rule="evenodd" d="M37.5164 177.42C36.9321 176.695 36.7791 175.713 37.1151 174.844L43.7788 157.616C44.1148 156.747 44.8887 156.124 45.8091 155.981C46.7294 155.837 47.6563 156.196 48.2406 156.921L59.8289 171.306C60.4132 172.031 60.5662 173.013 60.2302 173.882C59.8942 174.751 59.1202 175.374 58.1999 175.518L39.948 178.361C39.0277 178.504 38.1007 178.146 37.5164 177.42Z" fill="#36B39E"/>
<path fill-rule="evenodd" clip-rule="evenodd" d="M109.875 181.851C144.608 181.851 172.765 153.694 172.765 118.96C172.765 84.2267 144.608 56.0696 109.875 56.0696C75.1412 56.0696 46.9841 84.2267 46.9841 118.96C46.9841 153.694 75.1412 181.851 109.875 181.851ZM143.31 119.554C143.31 137.959 128.39 152.88 109.984 152.88C91.5787 152.88 76.6581 137.959 76.6581 119.554C76.6581 101.148 91.5787 86.2279 109.984 86.2279C128.39 86.2279 143.31 101.148 143.31 119.554Z" fill="#4DFFE1"/>
</g>
<defs>
<clipPath id="clip0_355_231">
<rect width="161" height="174" fill="white" transform="translate(12 8)"/>
</clipPath>
</defs>
</svg>
