<svg width="200" height="200" viewBox="0 0 200 200" fill="none" xmlns="http://www.w3.org/2000/svg">
<path d="M4.23907 41.7581C-0.0796911 37.4617 -0.0796911 30.5187 4.23907 26.2223C8.55784 21.9259 15.5715 21.9259 19.8903 26.2223L86.2265 92.2149C90.5453 96.5113 90.5453 103.489 86.2265 107.785L19.8903 173.778C15.5715 178.074 8.55784 178.074 4.23907 173.778C-0.0796911 169.481 -0.0796911 162.504 4.23907 158.208L62.7324 99.9828L4.23907 41.7581ZM89.4397 154.977H188.944C195.059 154.977 200 159.892 200 165.975C200 172.059 195.059 176.974 188.944 176.974H89.4397C83.3243 176.974 78.3836 172.059 78.3836 165.975C78.3836 159.892 83.3243 154.977 89.4397 154.977Z" fill="#E6F2FF"/>
</svg>
