<svg width="200" height="200" viewBox="0 0 200 200" fill="none" xmlns="http://www.w3.org/2000/svg">
<path d="M22.2222 34C9.96528 34 0 43.9404 0 56.1667V144.833C0 157.06 9.96528 167 22.2222 167H177.778C190.035 167 200 157.06 200 144.833V56.1667C200 43.9404 190.035 34 177.778 34H22.2222ZM27.7778 56.1667H38.8889C41.9444 56.1667 44.4444 58.6604 44.4444 61.7083V72.7917C44.4444 75.8396 41.9444 78.3333 38.8889 78.3333H27.7778C24.7222 78.3333 22.2222 75.8396 22.2222 72.7917V61.7083C22.2222 58.6604 24.7222 56.1667 27.7778 56.1667ZM22.2222 94.9583C22.2222 91.9104 24.7222 89.4167 27.7778 89.4167H38.8889C41.9444 89.4167 44.4444 91.9104 44.4444 94.9583V106.042C44.4444 109.09 41.9444 111.583 38.8889 111.583H27.7778C24.7222 111.583 22.2222 109.09 22.2222 106.042V94.9583ZM27.7778 122.667H38.8889C41.9444 122.667 44.4444 125.16 44.4444 128.208V139.292C44.4444 142.34 41.9444 144.833 38.8889 144.833H27.7778C24.7222 144.833 22.2222 142.34 22.2222 139.292V128.208C22.2222 125.16 24.7222 122.667 27.7778 122.667ZM55.5556 61.7083C55.5556 58.6604 58.0556 56.1667 61.1111 56.1667H72.2222C75.2778 56.1667 77.7778 58.6604 77.7778 61.7083V72.7917C77.7778 75.8396 75.2778 78.3333 72.2222 78.3333H61.1111C58.0556 78.3333 55.5556 75.8396 55.5556 72.7917V61.7083ZM61.1111 89.4167H72.2222C75.2778 89.4167 77.7778 91.9104 77.7778 94.9583V106.042C77.7778 109.09 75.2778 111.583 72.2222 111.583H61.1111C58.0556 111.583 55.5556 109.09 55.5556 106.042V94.9583C55.5556 91.9104 58.0556 89.4167 61.1111 89.4167ZM55.5556 128.208C55.5556 125.16 58.0556 122.667 61.1111 122.667H138.889C141.944 122.667 144.444 125.16 144.444 128.208V139.292C144.444 142.34 141.944 144.833 138.889 144.833H61.1111C58.0556 144.833 55.5556 142.34 55.5556 139.292V128.208ZM94.4444 56.1667H105.556C108.611 56.1667 111.111 58.6604 111.111 61.7083V72.7917C111.111 75.8396 108.611 78.3333 105.556 78.3333H94.4444C91.3889 78.3333 88.8889 75.8396 88.8889 72.7917V61.7083C88.8889 58.6604 91.3889 56.1667 94.4444 56.1667ZM88.8889 94.9583C88.8889 91.9104 91.3889 89.4167 94.4444 89.4167H105.556C108.611 89.4167 111.111 91.9104 111.111 94.9583V106.042C111.111 109.09 108.611 111.583 105.556 111.583H94.4444C91.3889 111.583 88.8889 109.09 88.8889 106.042V94.9583ZM127.778 56.1667H138.889C141.944 56.1667 144.444 58.6604 144.444 61.7083V72.7917C144.444 75.8396 141.944 78.3333 138.889 78.3333H127.778C124.722 78.3333 122.222 75.8396 122.222 72.7917V61.7083C122.222 58.6604 124.722 56.1667 127.778 56.1667ZM122.222 94.9583C122.222 91.9104 124.722 89.4167 127.778 89.4167H138.889C141.944 89.4167 144.444 91.9104 144.444 94.9583V106.042C144.444 109.09 141.944 111.583 138.889 111.583H127.778C124.722 111.583 122.222 109.09 122.222 106.042V94.9583ZM161.111 56.1667H172.222C175.278 56.1667 177.778 58.6604 177.778 61.7083V72.7917C177.778 75.8396 175.278 78.3333 172.222 78.3333H161.111C158.056 78.3333 155.556 75.8396 155.556 72.7917V61.7083C155.556 58.6604 158.056 56.1667 161.111 56.1667ZM155.556 94.9583C155.556 91.9104 158.056 89.4167 161.111 89.4167H172.222C175.278 89.4167 177.778 91.9104 177.778 94.9583V106.042C177.778 109.09 175.278 111.583 172.222 111.583H161.111C158.056 111.583 155.556 109.09 155.556 106.042V94.9583ZM161.111 122.667H172.222C175.278 122.667 177.778 125.16 177.778 128.208V139.292C177.778 142.34 175.278 144.833 172.222 144.833H161.111C158.056 144.833 155.556 142.34 155.556 139.292V128.208C155.556 125.16 158.056 122.667 161.111 122.667Z" fill="#E6F2FF"/>
</svg>
