<svg width="200" height="200" viewBox="0 0 200 200" fill="none" xmlns="http://www.w3.org/2000/svg">
<path d="M190.391 123.321L173.75 113.711C175.43 104.649 175.43 95.3519 173.75 86.2894L190.391 76.6801C192.305 75.5863 193.164 73.3207 192.539 71.2113C188.204 57.3051 180.821 44.7269 171.172 34.2582C169.688 32.6566 167.266 32.266 165.391 33.3597L148.75 42.9691C141.758 36.9535 133.711 32.3051 125 29.2582V10.0785C125 7.89099 123.477 5.97693 121.329 5.50818C106.993 2.30505 92.3051 2.4613 78.6723 5.50818C76.5239 5.97693 75.0004 7.89099 75.0004 10.0785V29.2972C66.3286 32.3832 58.2817 37.0316 51.2504 43.0082L34.6489 33.3988C32.7348 32.3051 30.352 32.6566 28.8676 34.2972C19.2192 44.7269 11.8364 57.3051 7.50044 71.2504C6.83637 73.3597 7.73481 75.6254 9.64887 76.7191L26.2895 86.3285C24.6098 95.391 24.6098 104.688 26.2895 113.75L9.64887 123.36C7.73481 124.453 6.87544 126.719 7.50044 128.828C11.8364 142.735 19.2192 155.313 28.8676 165.782C30.352 167.383 32.7739 167.774 34.6489 166.68L51.2895 157.071C58.2817 163.086 66.3286 167.735 75.0395 170.782V190C75.0395 192.188 76.5629 194.102 78.7114 194.571C93.0473 197.774 107.735 197.618 121.368 194.571C123.516 194.102 125.039 192.188 125.039 190V170.782C133.711 167.696 141.758 163.047 148.789 157.071L165.43 166.68C167.344 167.774 169.727 167.422 171.211 165.782C180.86 155.352 188.243 142.774 192.579 128.828C193.164 126.68 192.305 124.414 190.391 123.321ZM100 131.25C82.7739 131.25 68.7504 117.227 68.7504 100C68.7504 82.7738 82.7739 68.7504 100 68.7504C117.227 68.7504 131.25 82.7738 131.25 100C131.25 117.227 117.227 131.25 100 131.25Z" fill="#8395A7"/>
<g filter="url(#filter0_d_98_54)">
<circle cx="100" cy="100" r="40" fill="#C8D6E5"/>
</g>
<defs>
<filter id="filter0_d_98_54" x="40" y="40" width="120" height="120" filterUnits="userSpaceOnUse" color-interpolation-filters="sRGB">
<feFlood flood-opacity="0" result="BackgroundImageFix"/>
<feColorMatrix in="SourceAlpha" type="matrix" values="0 0 0 0 0 0 0 0 0 0 0 0 0 0 0 0 0 0 127 0" result="hardAlpha"/>
<feOffset/>
<feGaussianBlur stdDeviation="10"/>
<feComposite in2="hardAlpha" operator="out"/>
<feColorMatrix type="matrix" values="0 0 0 0 0 0 0 0 0 0 0 0 0 0 0 0 0 0 0.5 0"/>
<feBlend mode="normal" in2="BackgroundImageFix" result="effect1_dropShadow_98_54"/>
<feBlend mode="normal" in="SourceGraphic" in2="effect1_dropShadow_98_54" result="shape"/>
</filter>
</defs>
</svg>
