<svg width="150" height="200" viewBox="0 0 150 200" fill="none" xmlns="http://www.w3.org/2000/svg">
<mask id="mask0_508_149" style="mask-type:alpha" maskUnits="userSpaceOnUse" x="0" y="0" width="150" height="200">
<path d="M25 0C11.1929 0 0 11.1929 0 25V175C0 188.807 11.1929 200 25 200H125C138.807 200 150 188.807 150 175V62.5L87.5 0H25Z" fill="#A0A9B3"/>
</mask>
<g mask="url(#mask0_508_149)">
<path d="M25 0C11.1929 0 0 11.1929 0 25V175C0 188.807 11.1929 200 25 200H125C138.807 200 150 188.807 150 175V62.5L87.5 0H25Z" fill="#E6F2FF"/>
<g filter="url(#filter0_d_508_149)">
<g clip-path="url(#clip0_508_149)">
<path d="M87.5 62.5L150 62.5L87.5 1.78815e-07V62.5Z" fill="#E6F2FF"/>
</g>
</g>
<path d="M90.3897 142.251C90.6457 142.251 90.8604 142.058 90.887 141.803C91.2373 138.44 91.4375 134.911 91.4375 131.25C91.4375 127.591 91.2541 124.061 90.8867 120.694C90.859 120.441 90.6448 120.249 90.3897 120.249H59.627C59.3709 120.249 59.1562 120.442 59.1296 120.697C58.7793 124.06 58.5791 127.589 58.5791 131.25C58.5791 134.909 58.7625 138.439 59.1299 141.806C59.1576 142.059 59.3718 142.251 59.627 142.251H90.3897ZM95.7187 120.249C95.5772 120.249 95.4423 120.308 95.3475 120.414C95.2527 120.519 95.2069 120.659 95.2214 120.8C95.5682 124.163 95.75 127.657 95.75 131.25C95.75 134.843 95.5682 138.337 95.2214 141.7C95.2069 141.841 95.2527 141.981 95.3475 142.086C95.4423 142.191 95.5772 142.251 95.7187 142.251H116.155C116.383 142.251 116.581 142.098 116.639 141.878C117.53 138.473 118 134.919 118 131.25C118 127.581 117.53 124.027 116.639 120.622C116.581 120.402 116.383 120.249 116.155 120.249H95.7187ZM114.412 115.998C114.688 115.998 114.912 115.774 114.912 115.498C114.912 115.386 114.876 115.283 114.814 115.2C109.772 102.948 99.0957 93.5648 85.9838 90.1387C85.7779 90.0849 85.5604 90.1674 85.442 90.3443C85.3235 90.5211 85.3301 90.7536 85.4583 90.9236C89.6247 96.4466 92.8914 105.137 94.5442 115.576C94.5827 115.819 94.7921 115.998 95.0381 115.998H114.396H114.412ZM89.6592 115.998C89.8064 115.998 89.9461 115.933 90.0411 115.821C90.1361 115.708 90.1767 115.56 90.1522 115.414C89.134 109.393 87.5796 104.067 85.6326 99.7534C83.8718 95.8418 81.8959 92.9751 79.9586 91.145L79.9568 91.1434C78.0322 89.343 76.3718 88.7441 75 88.7441C73.6282 88.7441 71.9678 89.343 70.0432 91.1434L70.0414 91.145C68.1041 92.9752 66.1282 95.842 64.3673 99.7537L64.3666 99.7553C62.4374 104.083 60.8663 109.408 59.8479 115.414C59.8232 115.559 59.8639 115.708 59.9589 115.82C60.0539 115.933 60.1936 115.998 60.3408 115.998H89.6592ZM54.9619 115.998C55.2079 115.998 55.4173 115.819 55.4558 115.576C57.1086 105.137 60.3753 96.4466 64.5417 90.9236C64.6699 90.7537 64.6765 90.5212 64.5581 90.3443C64.4397 90.1674 64.2223 90.0849 64.0163 90.1387C50.8487 93.5749 40.1654 103.004 35.1252 115.308C35.062 115.462 35.0798 115.638 35.1727 115.776C35.2656 115.915 35.4212 115.998 35.5879 115.998H54.9619ZM33.8447 120.249C33.6173 120.249 33.4186 120.402 33.361 120.622C32.4704 124.027 32 127.581 32 131.25C32 134.919 32.4704 138.473 33.361 141.878C33.4186 142.098 33.6173 142.251 33.8447 142.251H54.2812C54.4228 142.251 54.5577 142.191 54.6525 142.086C54.7473 141.981 54.7931 141.841 54.7786 141.7C54.4318 138.337 54.25 134.843 54.25 131.25C54.25 127.657 54.4318 124.163 54.7786 120.8C54.7931 120.659 54.7473 120.519 54.6525 120.414C54.5577 120.308 54.4228 120.249 54.2812 120.249H33.8447ZM60.3408 146.502C60.1936 146.502 60.0539 146.567 59.9589 146.679C59.8639 146.792 59.8232 146.941 59.8479 147.086C60.8612 153.062 62.4058 158.367 64.3399 162.669C64.3469 162.695 64.356 162.721 64.3673 162.746C66.1282 166.658 68.1041 169.525 70.0414 171.355L70.0432 171.357C71.9678 173.157 73.6282 173.756 75 173.756C76.3726 173.756 78.0335 173.156 79.9585 171.339L79.9586 171.338C81.8959 169.508 83.8718 166.642 85.6327 162.73L85.6331 162.729C87.5626 158.417 89.1338 153.092 90.1521 147.086C90.1768 146.941 90.1361 146.792 90.0411 146.679C89.9461 146.567 89.8064 146.502 89.6592 146.502H60.3408ZM55.4558 146.924C55.4173 146.681 55.2079 146.502 54.9619 146.502H35.5879C35.4212 146.502 35.2656 146.585 35.1727 146.724C35.0798 146.862 35.062 147.037 35.1252 147.192C40.1654 159.496 50.8487 168.925 64.0163 172.361C64.2223 172.415 64.4397 172.332 64.5581 172.156C64.6765 171.979 64.6699 171.746 64.5417 171.576C60.3753 166.053 57.1086 157.363 55.4558 146.924ZM114.412 146.502H95.0547C94.809 146.502 94.5998 146.681 94.561 146.923C92.8914 157.363 89.6411 166.054 85.4749 171.576C85.3467 171.746 85.3401 171.979 85.4586 172.156C85.577 172.333 85.7945 172.415 86.0004 172.361C99.1127 168.935 109.772 159.551 114.83 147.3C114.892 147.217 114.929 147.114 114.929 147.002C114.929 146.726 114.705 146.502 114.429 146.502H114.412Z" fill="#1E262E" stroke="#1E262E" stroke-linejoin="round"/>
</g>
<defs>
<filter id="filter0_d_508_149" x="65.0281" y="-139.972" width="224.944" height="224.944" filterUnits="userSpaceOnUse" color-interpolation-filters="sRGB">
<feFlood flood-opacity="0" result="BackgroundImageFix"/>
<feColorMatrix in="SourceAlpha" type="matrix" values="0 0 0 0 0 0 0 0 0 0 0 0 0 0 0 0 0 0 127 0" result="hardAlpha"/>
<feOffset/>
<feGaussianBlur stdDeviation="11.236"/>
<feColorMatrix type="matrix" values="0 0 0 0 0 0 0 0 0 0 0 0 0 0 0 0 0 0 0.5 0"/>
<feBlend mode="normal" in2="BackgroundImageFix" result="effect1_dropShadow_508_149"/>
<feBlend mode="normal" in="SourceGraphic" in2="effect1_dropShadow_508_149" result="shape"/>
</filter>
<clipPath id="clip0_508_149">
<rect x="87.5" y="-117.5" width="180" height="180" rx="25" fill="white"/>
</clipPath>
</defs>
</svg>
