<svg width="150" height="200" viewBox="0 0 150 200" fill="none" xmlns="http://www.w3.org/2000/svg">
<mask id="mask0_512_184" style="mask-type:alpha" maskUnits="userSpaceOnUse" x="0" y="0" width="150" height="200">
<path d="M25 0C11.1929 0 0 11.1929 0 25V175C0 188.807 11.1929 200 25 200H125C138.807 200 150 188.807 150 175V62.5L87.5 0H25Z" fill="#A0A9B3"/>
</mask>
<g mask="url(#mask0_512_184)">
<path d="M25 0C11.1929 0 0 11.1929 0 25V175C0 188.807 11.1929 200 25 200H125C138.807 200 150 188.807 150 175V62.5L87.5 0H25Z" fill="#E6F2FF"/>
<g filter="url(#filter0_d_512_184)">
<g clip-path="url(#clip0_512_184)">
<path d="M87.5 62.5L150 62.5L87.5 1.78815e-07V62.5Z" fill="#E6F2FF"/>
</g>
</g>
<path d="M125 131.255C125 113.051 115.273 97.153 100.781 88.403H100.82C97.8516 86.6061 94.0234 87.5436 92.2266 90.5124C90.4297 93.4811 91.3672 97.3092 94.3359 99.1061C105.234 105.669 112.5 117.622 112.5 131.255C112.5 144.887 105.234 156.84 94.2969 163.403C91.3672 165.2 90.3906 169.067 92.1875 171.997C93.9844 174.926 97.8125 175.903 100.781 174.106C115.273 165.356 125 149.458 125 131.255Z" fill="#1E262E"/>
<path d="M68.75 106.255C68.75 103.715 67.2266 101.45 64.8828 100.473C62.5781 99.5358 59.8828 100.044 58.0859 101.841L44.2969 115.63H31.25C27.8125 115.63 25 118.442 25 121.88V140.63C25 144.067 27.8125 146.88 31.25 146.88H44.2969L58.0859 160.669C59.8438 162.465 62.5391 163.012 64.8828 162.036C67.2266 161.059 68.75 158.794 68.75 156.255V106.255Z" fill="#1E262E"/>
<path d="M93.6328 114.614C91.3281 112.036 87.3828 111.801 84.8047 114.106V114.145C82.2266 116.45 81.9922 120.395 84.2969 122.973C86.25 125.161 87.4609 128.09 87.4609 131.294C87.4609 134.497 86.2891 137.387 84.2969 139.614C82.0312 142.192 82.2266 146.176 84.8047 148.442C87.3828 150.708 91.3281 150.512 93.6328 147.934C97.5781 143.52 100 137.661 100 131.255C100 124.848 97.5781 118.989 93.6328 114.614Z" fill="#1E262E"/>
</g>
<defs>
<filter id="filter0_d_512_184" x="65.0281" y="-139.972" width="224.944" height="224.944" filterUnits="userSpaceOnUse" color-interpolation-filters="sRGB">
<feFlood flood-opacity="0" result="BackgroundImageFix"/>
<feColorMatrix in="SourceAlpha" type="matrix" values="0 0 0 0 0 0 0 0 0 0 0 0 0 0 0 0 0 0 127 0" result="hardAlpha"/>
<feOffset/>
<feGaussianBlur stdDeviation="11.236"/>
<feColorMatrix type="matrix" values="0 0 0 0 0 0 0 0 0 0 0 0 0 0 0 0 0 0 0.5 0"/>
<feBlend mode="normal" in2="BackgroundImageFix" result="effect1_dropShadow_512_184"/>
<feBlend mode="normal" in="SourceGraphic" in2="effect1_dropShadow_512_184" result="shape"/>
</filter>
<clipPath id="clip0_512_184">
<rect x="87.5" y="-117.5" width="180" height="180" rx="25" fill="white"/>
</clipPath>
</defs>
</svg>
