<svg width="150" height="200" viewBox="0 0 150 200" fill="none" xmlns="http://www.w3.org/2000/svg">
<mask id="mask0_512_175" style="mask-type:alpha" maskUnits="userSpaceOnUse" x="0" y="0" width="150" height="200">
<path d="M25 0C11.1929 0 0 11.1929 0 25V175C0 188.807 11.1929 200 25 200H125C138.807 200 150 188.807 150 175V62.5L87.5 0H25Z" fill="#A0A9B3"/>
</mask>
<g mask="url(#mask0_512_175)">
<path d="M25 0C11.1929 0 0 11.1929 0 25V175C0 188.807 11.1929 200 25 200H125C138.807 200 150 188.807 150 175V62.5L87.5 0H25Z" fill="#E6F2FF"/>
<g filter="url(#filter0_d_512_175)">
<g clip-path="url(#clip0_512_175)">
<path d="M87.5 62.5L150 62.5L87.5 1.78815e-07V62.5Z" fill="#E6F2FF"/>
</g>
</g>
<path d="M37.5 100C30.5859 100 25 105.586 25 112.5V150C25 156.914 30.5859 162.5 37.5 162.5H75C81.9141 162.5 87.5 156.914 87.5 150V112.5C87.5 105.586 81.9141 100 75 100H37.5Z" fill="#1E262E"/>
<path d="M100 143.75L117.539 155.43C118.32 155.977 119.258 156.25 120.195 156.25C122.852 156.25 125 154.102 125 151.445V111.055C125 108.398 122.852 106.25 120.195 106.25C119.258 106.25 118.32 106.562 117.539 107.07L100 118.75V143.75Z" fill="#1E262E"/>
</g>
<defs>
<filter id="filter0_d_512_175" x="65.0281" y="-139.972" width="224.944" height="224.944" filterUnits="userSpaceOnUse" color-interpolation-filters="sRGB">
<feFlood flood-opacity="0" result="BackgroundImageFix"/>
<feColorMatrix in="SourceAlpha" type="matrix" values="0 0 0 0 0 0 0 0 0 0 0 0 0 0 0 0 0 0 127 0" result="hardAlpha"/>
<feOffset/>
<feGaussianBlur stdDeviation="11.236"/>
<feColorMatrix type="matrix" values="0 0 0 0 0 0 0 0 0 0 0 0 0 0 0 0 0 0 0.5 0"/>
<feBlend mode="normal" in2="BackgroundImageFix" result="effect1_dropShadow_512_175"/>
<feBlend mode="normal" in="SourceGraphic" in2="effect1_dropShadow_512_175" result="shape"/>
</filter>
<clipPath id="clip0_512_175">
<rect x="87.5" y="-117.5" width="180" height="180" rx="25" fill="white"/>
</clipPath>
</defs>
</svg>
