<svg width="200" height="175" viewBox="0 0 200 175" fill="none" xmlns="http://www.w3.org/2000/svg">
<mask id="mask0_512_157" style="mask-type:alpha" maskUnits="userSpaceOnUse" x="0" y="0" width="200" height="175">
<path d="M25 175H175C188.789 175 200 163.789 200 150V50C200 36.2109 188.789 25 175 25H112.5C108.555 25 104.844 23.1641 102.5 20L95 10C90.2734 3.71094 82.8516 0 75 0H25C11.2109 0 0 11.2109 0 25V150C0 163.789 11.2109 175 25 175Z" fill="#B39336"/>
</mask>
<g mask="url(#mask0_512_157)">
<path d="M25 175H175C188.789 175 200 163.789 200 150V50C200 36.2109 188.789 25 175 25H112.5C108.555 25 104.844 23.1641 102.5 20L95 10C90.2734 3.71094 82.8516 0 75 0H25C11.2109 0 0 11.2109 0 25V150C0 163.789 11.2109 175 25 175Z" fill="#FF974D"/>
<g filter="url(#filter0_d_512_157)">
<rect y="36.5" width="200" height="139" rx="25" fill="#FED24C"/>
</g>
<path d="M52 75.6429C52 68.9453 57.4373 63.5 64.125 63.5H136.875C143.563 63.5 149 68.9453 149 75.6429V136.357C149 143.055 143.563 148.5 136.875 148.5H64.125C57.4373 148.5 52 143.055 52 136.357V75.6429Z" fill="#FED24C"/>
<path d="M100.345 64C91.5083 64 84.3387 71.1387 84.3387 79.9375V106.5C84.3387 115.299 91.5083 122.438 100.345 122.438C109.182 122.438 116.352 115.299 116.352 106.5V79.9375C116.352 71.1387 109.182 64 100.345 64ZM79.0032 99.8594C79.0032 97.6514 77.2192 95.875 75.0016 95.875C72.7841 95.875 71 97.6514 71 99.8594V106.5C71 121.292 82.0378 133.511 96.3436 135.453V141.031H88.3404C86.1228 141.031 84.3387 142.808 84.3387 145.016C84.3387 147.224 86.1228 149 88.3404 149H100.345H112.35C114.568 149 116.352 147.224 116.352 145.016C116.352 142.808 114.568 141.031 112.35 141.031H104.347V135.453C118.653 133.511 129.69 121.292 129.69 106.5V99.8594C129.69 97.6514 127.906 95.875 125.689 95.875C123.471 95.875 121.687 97.6514 121.687 99.8594V106.5C121.687 118.237 112.133 127.75 100.345 127.75C88.5571 127.75 79.0032 118.237 79.0032 106.5V99.8594Z" fill="#1E262E"/>
</g>
<defs>
<filter id="filter0_d_512_157" x="-20" y="16.5" width="240" height="179" filterUnits="userSpaceOnUse" color-interpolation-filters="sRGB">
<feFlood flood-opacity="0" result="BackgroundImageFix"/>
<feColorMatrix in="SourceAlpha" type="matrix" values="0 0 0 0 0 0 0 0 0 0 0 0 0 0 0 0 0 0 127 0" result="hardAlpha"/>
<feOffset/>
<feGaussianBlur stdDeviation="10"/>
<feColorMatrix type="matrix" values="0 0 0 0 0 0 0 0 0 0 0 0 0 0 0 0 0 0 0.5 0"/>
<feBlend mode="normal" in2="BackgroundImageFix" result="effect1_dropShadow_512_157"/>
<feBlend mode="normal" in="SourceGraphic" in2="effect1_dropShadow_512_157" result="shape"/>
</filter>
</defs>
</svg>
