<svg width="200" height="175" viewBox="0 0 200 175" fill="none" xmlns="http://www.w3.org/2000/svg">
<mask id="mask0_146_93" style="mask-type:alpha" maskUnits="userSpaceOnUse" x="0" y="0" width="200" height="175">
<path d="M25 175H175C188.789 175 200 163.789 200 150V50C200 36.2109 188.789 25 175 25H112.5C108.555 25 104.844 23.1641 102.5 20L95 10C90.2734 3.71094 82.8516 0 75 0H25C11.2109 0 0 11.2109 0 25V150C0 163.789 11.2109 175 25 175Z" fill="#B39336"/>
</mask>
<g mask="url(#mask0_146_93)">
<path d="M25 175H175C188.789 175 200 163.789 200 150V50C200 36.2109 188.789 25 175 25H112.5C108.555 25 104.844 23.1641 102.5 20L95 10C90.2734 3.71094 82.8516 0 75 0H25C11.2109 0 0 11.2109 0 25V150C0 163.789 11.2109 175 25 175Z" fill="#FF974D"/>
<g filter="url(#filter0_d_146_93)">
<rect y="36.5" width="200" height="139" rx="25" fill="#FED24C"/>
</g>
<path d="M52 75.6429C52 68.9453 57.4373 63.5 64.125 63.5H136.875C143.563 63.5 149 68.9453 149 75.6429V136.357C149 143.055 143.563 148.5 136.875 148.5H64.125C57.4373 148.5 52 143.055 52 136.357V75.6429Z" fill="#FED24C"/>
<path d="M52 75.6429C52 68.9453 57.4373 63.5 64.125 63.5H136.875C143.563 63.5 149 68.9453 149 75.6429V136.357C149 143.055 143.563 148.5 136.875 148.5H64.125C57.4373 148.5 52 143.055 52 136.357V75.6429ZM113.345 95.8493C112.492 94.5971 111.09 93.8571 109.594 93.8571C108.097 93.8571 106.676 94.5971 105.843 95.8493L89.3602 120.059L84.3396 113.779C83.4682 112.698 82.1609 112.071 80.7969 112.071C79.4328 112.071 78.1066 112.698 77.2541 113.779L65.1291 128.958C64.0303 130.324 63.8219 132.202 64.5797 133.777C65.3375 135.352 66.9289 136.357 68.6719 136.357H86.8594H92.9219H132.328C134.014 136.357 135.568 135.427 136.345 133.929C137.121 132.43 137.027 130.627 136.079 129.242L113.345 95.8493ZM73.2188 93.8571C75.6306 93.8571 77.9436 92.8976 79.649 91.1897C81.3544 89.4818 82.3125 87.1654 82.3125 84.75C82.3125 82.3346 81.3544 80.0182 79.649 78.3103C77.9436 76.6024 75.6306 75.6429 73.2188 75.6429C70.8069 75.6429 68.4939 76.6024 66.7885 78.3103C65.0831 80.0182 64.125 82.3346 64.125 84.75C64.125 87.1654 65.0831 89.4818 66.7885 91.1897C68.4939 92.8976 70.8069 93.8571 73.2188 93.8571Z" fill="#1E262E"/>
</g>
<defs>
<filter id="filter0_d_146_93" x="-20" y="16.5" width="240" height="179" filterUnits="userSpaceOnUse" color-interpolation-filters="sRGB">
<feFlood flood-opacity="0" result="BackgroundImageFix"/>
<feColorMatrix in="SourceAlpha" type="matrix" values="0 0 0 0 0 0 0 0 0 0 0 0 0 0 0 0 0 0 127 0" result="hardAlpha"/>
<feOffset/>
<feGaussianBlur stdDeviation="10"/>
<feColorMatrix type="matrix" values="0 0 0 0 0 0 0 0 0 0 0 0 0 0 0 0 0 0 0.5 0"/>
<feBlend mode="normal" in2="BackgroundImageFix" result="effect1_dropShadow_146_93"/>
<feBlend mode="normal" in="SourceGraphic" in2="effect1_dropShadow_146_93" result="shape"/>
</filter>
</defs>
</svg>
