<svg width="150" height="200" viewBox="0 0 150 200" fill="none" xmlns="http://www.w3.org/2000/svg">
<mask id="mask0_152_55" style="mask-type:alpha" maskUnits="userSpaceOnUse" x="0" y="0" width="150" height="200">
<path d="M25 0C11.1929 0 0 11.1929 0 25V175C0 188.807 11.1929 200 25 200H125C138.807 200 150 188.807 150 175V62.5L87.5 0H25Z" fill="#A0A9B3"/>
</mask>
<g mask="url(#mask0_152_55)">
<path d="M25 0C11.1929 0 0 11.1929 0 25V175C0 188.807 11.1929 200 25 200H125C138.807 200 150 188.807 150 175V62.5L87.5 0H25Z" fill="#E6F2FF"/>
<g filter="url(#filter0_d_152_55)">
<g clip-path="url(#clip0_152_55)">
<path d="M87.5 62.5L150 62.5L87.5 1.78815e-07V62.5Z" fill="#E6F2FF"/>
</g>
</g>
<path d="M47.6562 125L59.7656 112.891H59.7266C63.3984 109.258 63.3594 103.32 59.7266 99.6484C56.0937 95.9766 50.1562 95.9766 46.4844 99.6484L27.7344 118.398C24.0625 122.031 24.0625 127.969 27.7344 131.641L46.5234 150.352C50.1562 154.023 56.0938 153.984 59.7656 150.352C63.4375 146.719 63.4375 140.781 59.7656 137.109L47.6562 125Z" fill="#1E262E"/>
<path d="M122.266 118.359L103.516 99.6094V99.6484C99.8828 95.9766 93.9453 96.0156 90.2734 99.6484C86.6016 103.281 86.6016 109.219 90.2734 112.891L102.383 125L90.2734 137.109C86.6016 140.742 86.6406 146.68 90.2734 150.352C93.9062 154.023 99.8438 154.023 103.516 150.352L122.266 131.602C125.938 127.969 125.938 122.031 122.266 118.359Z" fill="#1E262E"/>
</g>
<defs>
<filter id="filter0_d_152_55" x="65.0281" y="-139.972" width="224.944" height="224.944" filterUnits="userSpaceOnUse" color-interpolation-filters="sRGB">
<feFlood flood-opacity="0" result="BackgroundImageFix"/>
<feColorMatrix in="SourceAlpha" type="matrix" values="0 0 0 0 0 0 0 0 0 0 0 0 0 0 0 0 0 0 127 0" result="hardAlpha"/>
<feOffset/>
<feGaussianBlur stdDeviation="11.236"/>
<feColorMatrix type="matrix" values="0 0 0 0 0 0 0 0 0 0 0 0 0 0 0 0 0 0 0.5 0"/>
<feBlend mode="normal" in2="BackgroundImageFix" result="effect1_dropShadow_152_55"/>
<feBlend mode="normal" in="SourceGraphic" in2="effect1_dropShadow_152_55" result="shape"/>
</filter>
<clipPath id="clip0_152_55">
<rect x="87.5" y="-117.5" width="180" height="180" rx="25" fill="white"/>
</clipPath>
</defs>
</svg>
