<svg width="200" height="200" viewBox="0 0 200 200" fill="none" xmlns="http://www.w3.org/2000/svg">
<mask id="mask0_158_164" style="mask-type:alpha" maskUnits="userSpaceOnUse" x="9" y="6" width="175" height="185">
<path d="M105.792 9C108.101 5 113.875 5 116.184 9L139.377 49.1704C141.686 53.1704 138.799 58.1704 134.181 58.1704H87.7958C83.177 58.1704 80.2902 53.1704 82.5996 49.1704L105.792 9Z" fill="#10AC84"/>
<path d="M32.0528 47.109C31.0566 43.3912 34.4587 39.9891 38.1765 40.9853L76.4129 51.2307C80.1308 52.2269 81.376 56.8742 78.6543 59.5959L50.6634 87.5868C47.9417 90.3085 43.2944 89.0633 42.2982 85.3454L32.0528 47.109Z" fill="#10AC84"/>
<path d="M11.0148 110.663C8.49251 108.897 8.82797 105.062 11.6187 103.761L41.1996 89.9672C43.9903 88.6659 47.1432 90.8736 46.8749 93.9411L44.0302 126.456C43.7618 129.523 40.2734 131.15 37.7511 129.384L11.0148 110.663Z" fill="#10AC84"/>
<path d="M25.5812 162.489C23.2732 162.408 21.918 159.859 23.1418 157.901L37.4348 135.027C38.6586 133.069 41.5436 133.169 42.6278 135.208L55.2904 159.023C56.3746 161.062 54.8448 163.51 52.5368 163.43L25.5812 162.489Z" fill="#10AC84"/>
<path d="M183.179 119.324C183.179 158.864 151.125 190.918 111.585 190.918C72.0443 190.918 39.9904 158.864 39.9904 119.324C39.9904 79.7835 72.0443 47.7296 111.585 47.7296C151.125 47.7296 183.179 79.7835 183.179 119.324Z" fill="#1DD1A1"/>
<path d="M89.9213 144.504C85.1693 144.504 80.8013 143.4 76.8173 141.192C72.8813 138.984 69.7373 135.912 67.3853 131.976C65.0813 127.992 63.9293 123.528 63.9293 118.584C63.9293 113.64 65.0813 109.2 67.3853 105.264C69.7373 101.328 72.8813 98.256 76.8173 96.048C80.8013 93.84 85.1693 92.736 89.9213 92.736C94.6733 92.736 99.0173 93.84 102.953 96.048C106.937 98.256 110.057 101.328 112.313 105.264C114.617 109.2 115.769 113.64 115.769 118.584C115.769 123.528 114.617 127.992 112.313 131.976C110.009 135.912 106.889 138.984 102.953 141.192C99.0173 143.4 94.6733 144.504 89.9213 144.504ZM89.9213 133.272C93.9533 133.272 97.1693 131.928 99.5693 129.24C102.017 126.552 103.241 123 103.241 118.584C103.241 114.12 102.017 110.568 99.5693 107.928C97.1693 105.24 93.9533 103.896 89.9213 103.896C85.8413 103.896 82.5773 105.216 80.1293 107.856C77.7293 110.496 76.5293 114.072 76.5293 118.584C76.5293 123.048 77.7293 126.624 80.1293 129.312C82.5773 131.952 85.8413 133.272 89.9213 133.272Z" fill="#222F3E"/>
<path d="M140.907 144.504C137.211 144.504 133.899 143.904 130.971 142.704C128.043 141.504 125.691 139.728 123.915 137.376C122.187 135.024 121.275 132.192 121.179 128.88H134.283C134.475 130.752 135.123 132.192 136.227 133.2C137.331 134.16 138.771 134.64 140.547 134.64C142.371 134.64 143.811 134.232 144.867 133.416C145.923 132.552 146.451 131.376 146.451 129.888C146.451 128.64 146.019 127.608 145.155 126.792C144.339 125.976 143.307 125.304 142.059 124.776C140.859 124.248 139.131 123.648 136.875 122.976C133.611 121.968 130.947 120.96 128.883 119.952C126.819 118.944 125.043 117.456 123.555 115.488C122.067 113.52 121.323 110.952 121.323 107.784C121.323 103.08 123.027 99.408 126.435 96.768C129.843 94.08 134.283 92.736 139.755 92.736C145.323 92.736 149.811 94.08 153.219 96.768C156.627 99.408 158.451 103.104 158.691 107.856H145.371C145.275 106.224 144.675 104.952 143.571 104.04C142.467 103.08 141.051 102.6 139.323 102.6C137.835 102.6 136.635 103.008 135.723 103.824C134.811 104.592 134.355 105.72 134.355 107.208C134.355 108.84 135.123 110.112 136.659 111.024C138.195 111.936 140.595 112.92 143.859 113.976C147.123 115.08 149.763 116.136 151.779 117.144C153.843 118.152 155.619 119.616 157.107 121.536C158.595 123.456 159.339 125.928 159.339 128.952C159.339 131.832 158.595 134.448 157.107 136.8C155.667 139.152 153.555 141.024 150.771 142.416C147.987 143.808 144.699 144.504 140.907 144.504Z" fill="#222F3E"/>
</mask>
<g mask="url(#mask0_158_164)">
<path d="M105.792 9C108.101 5 113.875 5 116.184 9L139.377 49.1704C141.686 53.1704 138.799 58.1704 134.181 58.1704H87.7958C83.177 58.1704 80.2902 53.1704 82.5996 49.1704L105.792 9Z" fill="#10AC84"/>
<path d="M32.0528 47.1091C31.0566 43.3912 34.4587 39.9892 38.1765 40.9854L76.413 51.2308C80.1308 52.227 81.376 56.8743 78.6544 59.5959L50.6634 87.5869C47.9417 90.3086 43.2944 89.0633 42.2982 85.3455L32.0528 47.1091Z" fill="#10AC84"/>
<path d="M11.0149 110.663C8.49254 108.897 8.828 105.062 11.6187 103.761L41.1996 89.9671C43.9903 88.6658 47.1433 90.8735 46.8749 93.941L44.0302 126.456C43.7619 129.523 40.2735 131.15 37.7511 129.384L11.0149 110.663Z" fill="#10AC84"/>
<path d="M25.5813 162.489C23.2733 162.408 21.918 159.859 23.1418 157.901L37.4348 135.027C38.6586 133.069 41.5436 133.169 42.6278 135.208L55.2904 159.023C56.3746 161.062 54.8449 163.511 52.5369 163.43L25.5813 162.489Z" fill="#10AC84"/>
<g filter="url(#filter0_d_158_164)">
<circle cx="111.585" cy="119.324" r="71.5944" fill="#1DD1A1"/>
</g>
<g filter="url(#filter1_d_158_164)">
<path d="M89.9213 144.504C85.1693 144.504 80.8013 143.4 76.8173 141.192C72.8813 138.984 69.7373 135.912 67.3853 131.976C65.0813 127.992 63.9293 123.528 63.9293 118.584C63.9293 113.64 65.0813 109.2 67.3853 105.264C69.7373 101.328 72.8813 98.256 76.8173 96.048C80.8013 93.84 85.1693 92.736 89.9213 92.736C94.6733 92.736 99.0173 93.84 102.953 96.048C106.937 98.256 110.057 101.328 112.313 105.264C114.617 109.2 115.769 113.64 115.769 118.584C115.769 123.528 114.617 127.992 112.313 131.976C110.009 135.912 106.889 138.984 102.953 141.192C99.0173 143.4 94.6733 144.504 89.9213 144.504ZM89.9213 133.272C93.9533 133.272 97.1693 131.928 99.5693 129.24C102.017 126.552 103.241 123 103.241 118.584C103.241 114.12 102.017 110.568 99.5693 107.928C97.1693 105.24 93.9533 103.896 89.9213 103.896C85.8413 103.896 82.5773 105.216 80.1293 107.856C77.7293 110.496 76.5293 114.072 76.5293 118.584C76.5293 123.048 77.7293 126.624 80.1293 129.312C82.5773 131.952 85.8413 133.272 89.9213 133.272ZM140.907 144.504C137.211 144.504 133.899 143.904 130.971 142.704C128.043 141.504 125.691 139.728 123.915 137.376C122.187 135.024 121.275 132.192 121.179 128.88H134.283C134.475 130.752 135.123 132.192 136.227 133.2C137.331 134.16 138.771 134.64 140.547 134.64C142.371 134.64 143.811 134.232 144.867 133.416C145.923 132.552 146.451 131.376 146.451 129.888C146.451 128.64 146.019 127.608 145.155 126.792C144.339 125.976 143.307 125.304 142.059 124.776C140.859 124.248 139.131 123.648 136.875 122.976C133.611 121.968 130.947 120.96 128.883 119.952C126.819 118.944 125.043 117.456 123.555 115.488C122.067 113.52 121.323 110.952 121.323 107.784C121.323 103.08 123.027 99.408 126.435 96.768C129.843 94.08 134.283 92.736 139.755 92.736C145.323 92.736 149.811 94.08 153.219 96.768C156.627 99.408 158.451 103.104 158.691 107.856H145.371C145.275 106.224 144.675 104.952 143.571 104.04C142.467 103.08 141.051 102.6 139.323 102.6C137.835 102.6 136.635 103.008 135.723 103.824C134.811 104.592 134.355 105.72 134.355 107.208C134.355 108.84 135.123 110.112 136.659 111.024C138.195 111.936 140.595 112.92 143.859 113.976C147.123 115.08 149.763 116.136 151.779 117.144C153.843 118.152 155.619 119.616 157.107 121.536C158.595 123.456 159.339 125.928 159.339 128.952C159.339 131.832 158.595 134.448 157.107 136.8C155.667 139.152 153.555 141.024 150.771 142.416C147.987 143.808 144.699 144.504 140.907 144.504Z" fill="#222F3E"/>
</g>
</g>
<defs>
<filter id="filter0_d_158_164" x="19.9904" y="27.7297" width="183.189" height="183.189" filterUnits="userSpaceOnUse" color-interpolation-filters="sRGB">
<feFlood flood-opacity="0" result="BackgroundImageFix"/>
<feColorMatrix in="SourceAlpha" type="matrix" values="0 0 0 0 0 0 0 0 0 0 0 0 0 0 0 0 0 0 127 0" result="hardAlpha"/>
<feOffset/>
<feGaussianBlur stdDeviation="10"/>
<feColorMatrix type="matrix" values="0 0 0 0 0 0 0 0 0 0 0 0 0 0 0 0 0 0 0.5 0"/>
<feBlend mode="normal" in2="BackgroundImageFix" result="effect1_dropShadow_158_164"/>
<feBlend mode="normal" in="SourceGraphic" in2="effect1_dropShadow_158_164" result="shape"/>
</filter>
<filter id="filter1_d_158_164" x="43.9293" y="72.7361" width="135.41" height="91.7678" filterUnits="userSpaceOnUse" color-interpolation-filters="sRGB">
<feFlood flood-opacity="0" result="BackgroundImageFix"/>
<feColorMatrix in="SourceAlpha" type="matrix" values="0 0 0 0 0 0 0 0 0 0 0 0 0 0 0 0 0 0 127 0" result="hardAlpha"/>
<feOffset/>
<feGaussianBlur stdDeviation="10"/>
<feColorMatrix type="matrix" values="0 0 0 0 0 0 0 0 0 0 0 0 0 0 0 0 0 0 0.5 0"/>
<feBlend mode="normal" in2="BackgroundImageFix" result="effect1_dropShadow_158_164"/>
<feBlend mode="normal" in="SourceGraphic" in2="effect1_dropShadow_158_164" result="shape"/>
</filter>
</defs>
</svg>
