<svg width="870" height="618" viewBox="0 0 870 618" fill="none" xmlns="http://www.w3.org/2000/svg">
<g filter="url(#filter0_d_366_104)">
<path fill-rule="evenodd" clip-rule="evenodd" d="M327.767 24.006C332.946 24.1548 337.652 27.0552 340.113 31.6147L388.911 122.038C391.372 126.598 391.213 132.124 388.495 136.534C385.776 140.945 380.911 143.57 375.733 143.422L273.024 140.471C267.845 140.322 263.139 137.421 260.679 132.862C258.218 128.302 258.377 122.777 261.095 118.366L315.005 30.8933C317.723 26.4826 322.588 23.8572 327.767 24.006Z" fill="#36B39E"/>
<path fill-rule="evenodd" clip-rule="evenodd" d="M131.183 96.4237C134.93 93.7153 139.839 93.212 144.058 95.1036L227.74 132.616C231.959 134.508 234.849 138.507 235.321 143.107C235.792 147.707 233.774 152.209 230.026 154.917L155.698 208.631C151.951 211.34 147.042 211.843 142.823 209.952C138.603 208.06 135.714 204.061 135.242 199.461L125.888 108.234C125.417 103.634 127.435 99.1322 131.183 96.4237Z" fill="#36B39E"/>
<path fill-rule="evenodd" clip-rule="evenodd" d="M27.7345 250.821C29.1559 246.947 32.5363 244.125 36.6025 243.419L117.242 229.411C121.308 228.705 125.442 230.221 128.087 233.39C130.731 236.558 131.485 240.896 130.064 244.771L101.875 321.61C100.453 325.485 97.0729 328.307 93.0068 329.013C88.9407 329.719 84.8066 328.203 82.1619 325.034L29.7115 262.202C27.0668 259.034 26.3132 254.696 27.7345 250.821Z" fill="#36B39E"/>
<path fill-rule="evenodd" clip-rule="evenodd" d="M24.202 416.09C23.4769 412.479 24.7334 408.755 27.4982 406.322L82.3311 358.058C85.0959 355.624 88.9491 354.85 92.4391 356.028C95.9292 357.206 98.5258 360.156 99.251 363.767L113.632 435.386C114.357 438.997 113.101 442.721 110.336 445.154C107.571 447.588 103.718 448.362 100.228 447.184L31.0138 423.829C27.5238 422.652 24.9272 419.702 24.202 416.09Z" fill="#36B39E"/>
<path fill-rule="evenodd" clip-rule="evenodd" d="M100.549 532.261C98.7963 530.085 98.3374 527.139 99.3454 524.533L119.336 472.848C120.344 470.242 122.666 468.372 125.427 467.942C128.188 467.512 130.969 468.587 132.722 470.763L167.487 513.918C169.24 516.094 169.699 519.04 168.691 521.646C167.683 524.253 165.361 526.123 162.6 526.553L107.844 535.083C105.083 535.513 102.302 534.437 100.549 532.261Z" fill="#36B39E"/>
<path fill-rule="evenodd" clip-rule="evenodd" d="M317.624 545.552C421.825 545.552 506.296 461.081 506.296 356.881C506.296 252.68 421.825 168.209 317.624 168.209C213.424 168.209 128.952 252.68 128.952 356.881C128.952 461.081 213.424 545.552 317.624 545.552ZM417.931 358.662C417.931 413.878 373.169 458.64 317.952 458.64C262.736 458.64 217.974 413.878 217.974 358.662C217.974 303.445 262.736 258.684 317.952 258.684C373.169 258.684 417.931 303.445 417.931 358.662Z" fill="#4DFFE1"/>
<path d="M646.452 544.782C615.512 544.782 588.482 540.362 565.362 531.522C542.582 522.342 521.502 507.892 502.122 488.172L565.872 424.422C579.132 437.002 593.072 446.692 607.692 453.492C622.312 459.952 637.952 463.182 654.612 463.182C668.552 463.182 679.092 461.142 686.232 457.062C693.372 452.642 696.942 446.692 696.942 439.212C696.942 431.732 693.882 425.612 687.762 420.852C681.642 415.752 673.482 411.332 663.282 407.592C653.422 403.512 642.372 399.432 630.132 395.352C618.232 391.272 606.332 386.342 594.432 380.562C582.532 374.782 571.482 367.812 561.282 359.652C551.422 351.152 543.432 340.782 537.312 328.542C531.192 315.962 528.132 300.662 528.132 282.642C528.132 259.182 533.742 238.952 544.962 221.952C556.182 204.952 571.992 192.032 592.392 183.192C612.792 174.012 636.762 169.422 664.302 169.422C691.502 169.422 716.662 173.842 739.782 182.682C763.242 191.182 782.622 203.422 797.922 219.402L733.662 283.152C722.442 272.272 711.222 264.282 700.002 259.182C688.782 253.742 676.542 251.022 663.282 251.022C652.742 251.022 644.242 252.722 637.782 256.122C631.662 259.522 628.602 264.622 628.602 271.422C628.602 278.562 631.662 284.512 637.782 289.272C643.902 293.692 651.892 297.772 661.752 301.512C671.952 305.252 683.002 309.162 694.902 313.242C707.142 317.322 719.212 322.252 731.112 328.032C743.012 333.472 753.892 340.612 763.752 349.452C773.952 357.952 782.112 368.662 788.232 381.582C794.352 394.502 797.412 410.142 797.412 428.502C797.412 465.562 784.152 494.292 757.632 514.692C731.452 534.752 694.392 544.782 646.452 544.782Z" fill="#4DFFE1"/>
</g>
<defs>
<filter id="filter0_d_366_104" x="24" y="24" width="774" height="534" filterUnits="userSpaceOnUse" color-interpolation-filters="sRGB">
<feFlood flood-opacity="0" result="BackgroundImageFix"/>
<feColorMatrix in="SourceAlpha" type="matrix" values="0 0 0 0 0 0 0 0 0 0 0 0 0 0 0 0 0 0 127 0" result="hardAlpha"/>
<feOffset dy="12"/>
<feColorMatrix type="matrix" values="0 0 0 0 0.117 0 0 0 0 0.1485 0 0 0 0 0.18 0 0 0 0.25 0"/>
<feBlend mode="normal" in2="BackgroundImageFix" result="effect1_dropShadow_366_104"/>
<feBlend mode="normal" in="SourceGraphic" in2="effect1_dropShadow_366_104" result="shape"/>
</filter>
</defs>
</svg>
