<svg width="200" height="200" viewBox="0 0 200 200" fill="none" xmlns="http://www.w3.org/2000/svg">
<g clip-path="url(#clip0_4_24)">
<path d="M139.608 13.3976C146.038 13.3976 151.981 16.8284 155.196 22.3976L194.804 91.0001C198.019 96.5694 198.019 103.431 194.804 109L155.196 177.603C151.981 183.172 146.038 186.603 139.608 186.603L60.3923 186.603C53.9615 186.603 48.0192 183.172 44.8038 177.603L5.19615 109C1.98076 103.431 1.98076 96.5694 5.19615 91.0001L44.8038 22.3976C48.0192 16.8284 53.9615 13.3976 60.3923 13.3976L139.608 13.3976Z" fill="#54A0FF"/>
<g filter="url(#filter0_d_4_24)">
<path d="M90.8816 156.889L77.3483 152.948C75.9284 152.547 75.1298 151.055 75.5291 149.63L105.813 44.929C106.212 43.5039 107.698 42.7022 109.118 43.1031L122.652 47.0444C124.072 47.4452 124.87 48.9371 124.471 50.3622L94.1873 155.063C93.7658 156.488 92.3015 157.312 90.8816 156.889ZM65.5899 131.905L75.2407 121.573C76.2612 120.482 76.1947 118.745 75.0632 117.743L54.9629 99.996L75.0632 82.249C76.1947 81.2469 76.2834 79.5101 75.2407 78.419L65.5899 68.087C64.5915 67.0181 62.9054 66.9513 61.8183 67.9756L29.8486 98.0365C28.7171 99.0831 28.7171 100.887 29.8486 101.933L61.8183 132.016C62.9054 133.041 64.5915 132.996 65.5899 131.905ZM138.182 132.039L170.151 101.956C171.283 100.909 171.283 99.1053 170.151 98.0588L138.182 67.9534C137.117 66.9513 135.431 66.9959 134.41 68.0647L124.759 78.3967C123.739 79.4878 123.805 81.2247 124.937 82.2267L145.037 99.996L124.937 117.743C123.805 118.745 123.717 120.482 124.759 121.573L134.41 131.905C135.408 132.996 137.095 133.041 138.182 132.039Z" fill="#222F3E"/>
</g>
</g>
<defs>
<filter id="filter0_d_4_24" x="9" y="23" width="182" height="154" filterUnits="userSpaceOnUse" color-interpolation-filters="sRGB">
<feFlood flood-opacity="0" result="BackgroundImageFix"/>
<feColorMatrix in="SourceAlpha" type="matrix" values="0 0 0 0 0 0 0 0 0 0 0 0 0 0 0 0 0 0 127 0" result="hardAlpha"/>
<feOffset/>
<feGaussianBlur stdDeviation="10"/>
<feComposite in2="hardAlpha" operator="out"/>
<feColorMatrix type="matrix" values="0 0 0 0 0 0 0 0 0 0 0 0 0 0 0 0 0 0 0.5 0"/>
<feBlend mode="normal" in2="BackgroundImageFix" result="effect1_dropShadow_4_24"/>
<feBlend mode="normal" in="SourceGraphic" in2="effect1_dropShadow_4_24" result="shape"/>
</filter>
<clipPath id="clip0_4_24">
<rect width="200" height="200" fill="white"/>
</clipPath>
</defs>
</svg>
