<svg width="199" height="200" viewBox="0 0 199 200" fill="none" xmlns="http://www.w3.org/2000/svg">
<g clip-path="url(#clip0_293_72)">
<mask id="mask0_293_72" style="mask-type:alpha" maskUnits="userSpaceOnUse" x="0" y="0" width="199" height="200">
<path d="M68.4062 9.82812C68.4062 4.65879 64.2475 0.5 59.0781 0.5C53.9088 0.5 49.75 4.65879 49.75 9.82812V25.375C36.0299 25.375 24.875 36.5299 24.875 50.25H9.32812C4.15879 50.25 0 54.4088 0 59.5781C0 64.7475 4.15879 68.9062 9.32812 68.9062H24.875V90.6719H9.32812C4.15879 90.6719 0 94.8307 0 100C0 105.169 4.15879 109.328 9.32812 109.328H24.875V131.094H9.32812C4.15879 131.094 0 135.253 0 140.422C0 145.591 4.15879 149.75 9.32812 149.75H24.875C24.875 163.47 36.0299 174.625 49.75 174.625V190.172C49.75 195.341 53.9088 199.5 59.0781 199.5C64.2475 199.5 68.4062 195.341 68.4062 190.172V174.625H90.1719V190.172C90.1719 195.341 94.3307 199.5 99.5 199.5C104.669 199.5 108.828 195.341 108.828 190.172V174.625H130.594V190.172C130.594 195.341 134.753 199.5 139.922 199.5C145.091 199.5 149.25 195.341 149.25 190.172V174.625C162.97 174.625 174.125 163.47 174.125 149.75H189.672C194.841 149.75 199 145.591 199 140.422C199 135.253 194.841 131.094 189.672 131.094H174.125V109.328H189.672C194.841 109.328 199 105.169 199 100C199 94.8307 194.841 90.6719 189.672 90.6719H174.125V68.9062H189.672C194.841 68.9062 199 64.7475 199 59.5781C199 54.4088 194.841 50.25 189.672 50.25H174.125C174.125 36.5299 162.97 25.375 149.25 25.375V9.82812C149.25 4.65879 145.091 0.5 139.922 0.5C134.753 0.5 130.594 4.65879 130.594 9.82812V25.375H108.828V9.82812C108.828 4.65879 104.669 0.5 99.5 0.5C94.3307 0.5 90.1719 4.65879 90.1719 9.82812V25.375H68.4062V9.82812ZM62.1875 50.25H136.812C143.692 50.25 149.25 55.808 149.25 62.6875V137.312C149.25 144.192 143.692 149.75 136.812 149.75H62.1875C55.308 149.75 49.75 144.192 49.75 137.312V62.6875C49.75 55.808 55.308 50.25 62.1875 50.25ZM136.812 62.6875H62.1875V137.312H136.812V62.6875Z" fill="#222F3E"/>
<path fill-rule="evenodd" clip-rule="evenodd" d="M149.25 62.6875C149.25 55.808 143.692 50.25 136.812 50.25H62.1875C55.308 50.25 49.75 55.808 49.75 62.6875V137.312C49.75 144.192 55.308 149.75 62.1875 149.75H136.812C143.692 149.75 149.25 144.192 149.25 137.312V62.6875ZM62.1875 62.6875H136.812V137.312H62.1875V62.6875Z" fill="#B33640"/>
</mask>
<g mask="url(#mask0_293_72)">
<path d="M68.4062 9.82812C68.4062 4.65879 64.2475 0.5 59.0781 0.5C53.9088 0.5 49.75 4.65879 49.75 9.82812V25.375C36.0299 25.375 24.875 36.5299 24.875 50.25H9.32812C4.15879 50.25 0 54.4088 0 59.5781C0 64.7475 4.15879 68.9062 9.32812 68.9062H24.875V90.6719H9.32812C4.15879 90.6719 0 94.8307 0 100C0 105.169 4.15879 109.328 9.32812 109.328H24.875V131.094H9.32812C4.15879 131.094 0 135.253 0 140.422C0 145.591 4.15879 149.75 9.32812 149.75H24.875C24.875 163.47 36.0299 174.625 49.75 174.625V190.172C49.75 195.341 53.9088 199.5 59.0781 199.5C64.2475 199.5 68.4062 195.341 68.4062 190.172V174.625H90.1719V190.172C90.1719 195.341 94.3307 199.5 99.5 199.5C104.669 199.5 108.828 195.341 108.828 190.172V174.625H130.594V190.172C130.594 195.341 134.753 199.5 139.922 199.5C145.091 199.5 149.25 195.341 149.25 190.172V174.625C162.97 174.625 174.125 163.47 174.125 149.75H189.672C194.841 149.75 199 145.591 199 140.422C199 135.253 194.841 131.094 189.672 131.094H174.125V109.328H189.672C194.841 109.328 199 105.169 199 100C199 94.8307 194.841 90.6719 189.672 90.6719H174.125V68.9062H189.672C194.841 68.9062 199 64.7475 199 59.5781C199 54.4088 194.841 50.25 189.672 50.25H174.125C174.125 36.5299 162.97 25.375 149.25 25.375V9.82812C149.25 4.65879 145.091 0.5 139.922 0.5C134.753 0.5 130.594 4.65879 130.594 9.82812V25.375H108.828V9.82812C108.828 4.65879 104.669 0.5 99.5 0.5C94.3307 0.5 90.1719 4.65879 90.1719 9.82812V25.375H68.4062V9.82812Z" fill="#5C6166"/>
<g filter="url(#filter0_d_293_72)">
<path d="M24.875 50.25C24.875 36.5299 36.0299 25.375 49.75 25.375H149.25C162.97 25.375 174.125 36.5299 174.125 50.25V149.75C174.125 163.47 162.97 174.625 149.25 174.625H49.75C36.0299 174.625 24.875 163.47 24.875 149.75V50.25Z" fill="#29343F"/>
</g>
<g filter="url(#filter1_d_293_72)">
<path fill-rule="evenodd" clip-rule="evenodd" d="M149.25 62.6875C149.25 55.808 143.692 50.25 136.812 50.25H62.1875C55.308 50.25 49.75 55.808 49.75 62.6875V137.312C49.75 144.192 55.308 149.75 62.1875 149.75H136.812C143.692 149.75 149.25 144.192 149.25 137.312V62.6875ZM62.1875 62.6875H136.812V137.312H62.1875V62.6875Z" fill="#FF4D5B"/>
<path d="M136.812 62.6875H139.312V60.1875H136.812V62.6875ZM62.1875 62.6875V60.1875H59.6875V62.6875H62.1875ZM136.812 137.312V139.812H139.312V137.312H136.812ZM62.1875 137.312H59.6875V139.812H62.1875V137.312ZM136.812 52.75C142.311 52.75 146.75 57.1887 146.75 62.6875H151.75C151.75 54.4273 145.073 47.75 136.812 47.75V52.75ZM62.1875 52.75H136.812V47.75H62.1875V52.75ZM52.25 62.6875C52.25 57.1887 56.6887 52.75 62.1875 52.75V47.75C53.9273 47.75 47.25 54.4273 47.25 62.6875H52.25ZM52.25 137.312V62.6875H47.25V137.312H52.25ZM62.1875 147.25C56.6887 147.25 52.25 142.811 52.25 137.312H47.25C47.25 145.573 53.9273 152.25 62.1875 152.25V147.25ZM136.812 147.25H62.1875V152.25H136.812V147.25ZM146.75 137.312C146.75 142.811 142.311 147.25 136.812 147.25V152.25C145.073 152.25 151.75 145.573 151.75 137.312H146.75ZM146.75 62.6875V137.312H151.75V62.6875H146.75ZM136.812 60.1875H62.1875V65.1875H136.812V60.1875ZM139.312 137.312V62.6875H134.312V137.312H139.312ZM62.1875 139.812H136.812V134.812H62.1875V139.812ZM59.6875 62.6875V137.312H64.6875V62.6875H59.6875Z" fill="#FF4D5B"/>
</g>
</g>
</g>
<defs>
<filter id="filter0_d_293_72" x="4.875" y="5.375" width="189.25" height="189.25" filterUnits="userSpaceOnUse" color-interpolation-filters="sRGB">
<feFlood flood-opacity="0" result="BackgroundImageFix"/>
<feColorMatrix in="SourceAlpha" type="matrix" values="0 0 0 0 0 0 0 0 0 0 0 0 0 0 0 0 0 0 127 0" result="hardAlpha"/>
<feOffset/>
<feGaussianBlur stdDeviation="10"/>
<feColorMatrix type="matrix" values="0 0 0 0 0 0 0 0 0 0 0 0 0 0 0 0 0 0 0.5 0"/>
<feBlend mode="normal" in2="BackgroundImageFix" result="effect1_dropShadow_293_72"/>
<feBlend mode="normal" in="SourceGraphic" in2="effect1_dropShadow_293_72" result="shape"/>
</filter>
<filter id="filter1_d_293_72" x="27.25" y="27.75" width="144.5" height="144.5" filterUnits="userSpaceOnUse" color-interpolation-filters="sRGB">
<feFlood flood-opacity="0" result="BackgroundImageFix"/>
<feColorMatrix in="SourceAlpha" type="matrix" values="0 0 0 0 0 0 0 0 0 0 0 0 0 0 0 0 0 0 127 0" result="hardAlpha"/>
<feOffset/>
<feGaussianBlur stdDeviation="10"/>
<feColorMatrix type="matrix" values="0 0 0 0 0 0 0 0 0 0 0 0 0 0 0 0 0 0 0.5 0"/>
<feBlend mode="normal" in2="BackgroundImageFix" result="effect1_dropShadow_293_72"/>
<feBlend mode="normal" in="SourceGraphic" in2="effect1_dropShadow_293_72" result="shape"/>
</filter>
<clipPath id="clip0_293_72">
<rect width="199" height="199" fill="white" transform="translate(0 0.5)"/>
</clipPath>
</defs>
</svg>
