<svg width="200" height="200" viewBox="0 0 200 200" fill="none" xmlns="http://www.w3.org/2000/svg">
<path d="M193.984 65.0781C195.234 68.4766 194.179 72.2656 191.484 74.6875L174.569 90.0781C174.999 93.3203 175.234 96.6406 175.234 100C175.234 103.359 174.999 106.68 174.569 109.922L191.484 125.312C194.179 127.734 195.234 131.523 193.984 134.922C192.265 139.57 190.194 144.023 187.812 148.32L185.976 151.484C183.398 155.781 180.507 159.844 177.343 163.672C175.038 166.484 171.21 167.422 167.773 166.328L146.015 159.414C140.78 163.438 134.999 166.797 128.827 169.336L123.944 191.641C123.163 195.195 120.429 198.008 116.835 198.594C111.444 199.492 105.898 199.961 100.233 199.961C94.5694 199.961 89.0226 199.492 83.6319 198.594C80.0382 198.008 77.3038 195.195 76.5226 191.641L71.6397 169.336C65.4679 166.797 59.6866 163.438 54.4522 159.414L32.7335 166.367C29.296 167.461 25.4679 166.484 23.1632 163.711C19.9991 159.883 17.1085 155.82 14.5304 151.523L12.6944 148.359C10.3116 144.062 8.24131 139.609 6.52256 134.961C5.27256 131.562 6.32725 127.773 9.02256 125.352L25.9366 109.961C25.5069 106.68 25.2726 103.359 25.2726 100C25.2726 96.6406 25.5069 93.3203 25.9366 90.0781L9.02256 74.6875C6.32725 72.2656 5.27256 68.4766 6.52256 65.0781C8.24131 60.4297 10.3116 55.9766 12.6944 51.6797L14.5304 48.5156C17.1085 44.2188 19.9991 40.1562 23.1632 36.3281C25.4679 33.5156 29.296 32.5781 32.7335 33.6719L54.4913 40.5859C59.7257 36.5625 65.5069 33.2031 71.6788 30.6641L76.5616 8.35938C77.3429 4.80469 80.0772 1.99219 83.671 1.40625C89.0616 0.46875 94.6085 0 100.273 0C105.937 0 111.484 0.46875 116.874 1.36719C120.468 1.95312 123.202 4.76562 123.984 8.32031L128.866 30.625C135.038 33.1641 140.819 36.5234 146.054 40.5469L167.812 33.6328C171.249 32.5391 175.077 33.5156 177.382 36.2891C180.546 40.1172 183.437 44.1797 186.015 48.4766L187.851 51.6406C190.234 55.9375 192.304 60.3906 194.023 65.0391L193.984 65.0781ZM100.273 131.25C108.561 131.25 116.509 127.958 122.37 122.097C128.23 116.237 131.523 108.288 131.523 100C131.523 91.712 128.23 83.7634 122.37 77.9029C116.509 72.0424 108.561 68.75 100.273 68.75C91.9845 68.75 84.036 72.0424 78.1755 77.9029C72.315 83.7634 69.0226 91.712 69.0226 100C69.0226 108.288 72.315 116.237 78.1755 122.097C84.036 127.958 91.9845 131.25 100.273 131.25Z" fill="#5C6166"/>
<g filter="url(#filter0_d_98_54)">
<circle cx="100" cy="100" r="40" fill="#A0A9B3"/>
</g>
<defs>
<filter id="filter0_d_98_54" x="40" y="40" width="120" height="120" filterUnits="userSpaceOnUse" color-interpolation-filters="sRGB">
<feFlood flood-opacity="0" result="BackgroundImageFix"/>
<feColorMatrix in="SourceAlpha" type="matrix" values="0 0 0 0 0 0 0 0 0 0 0 0 0 0 0 0 0 0 127 0" result="hardAlpha"/>
<feOffset/>
<feGaussianBlur stdDeviation="10"/>
<feColorMatrix type="matrix" values="0 0 0 0 0 0 0 0 0 0 0 0 0 0 0 0 0 0 0.5 0"/>
<feBlend mode="normal" in2="BackgroundImageFix" result="effect1_dropShadow_98_54"/>
<feBlend mode="normal" in="SourceGraphic" in2="effect1_dropShadow_98_54" result="shape"/>
</filter>
</defs>
</svg>
