<svg width="290" height="206" viewBox="0 0 290 206" fill="none" xmlns="http://www.w3.org/2000/svg">
<g filter="url(#filter0_d_379_108)">
<path fill-rule="evenodd" clip-rule="evenodd" d="M109.256 8.002C110.982 8.0516 112.551 9.01841 113.371 10.5382L129.637 40.6794C130.457 42.1992 130.404 44.0412 129.498 45.5114C128.592 46.9816 126.97 47.8568 125.244 47.8072L91.0081 46.8235C89.2818 46.7739 87.7131 45.8071 86.8929 44.2873C86.0727 42.7674 86.1256 40.9255 87.0317 39.4553L105.002 10.2978C105.908 8.82754 107.529 7.9524 109.256 8.002Z" fill="#1E262E"/>
<path fill-rule="evenodd" clip-rule="evenodd" d="M43.7275 32.1412C44.9768 31.2384 46.6129 31.0707 48.0194 31.7012L75.9132 44.2055C77.3197 44.836 78.283 46.169 78.4402 47.7023C78.5975 49.2356 77.9247 50.7363 76.6754 51.6391L51.8995 69.5438C50.6502 70.4466 49.0141 70.6144 47.6076 69.9838C46.2011 69.3533 45.2378 68.0204 45.0806 66.487L41.9627 36.0781C41.8055 34.5448 42.4782 33.0441 43.7275 32.1412Z" fill="#1E262E"/>
<path fill-rule="evenodd" clip-rule="evenodd" d="M9.24484 83.6071C9.71864 82.3156 10.8454 81.3749 12.2008 81.1395L39.0806 76.4704C40.4359 76.2349 41.8139 76.7405 42.6955 77.7965C43.5771 78.8526 43.8283 80.2988 43.3545 81.5903L33.9582 107.203C33.4844 108.495 32.3576 109.436 31.0023 109.671C29.6469 109.906 28.2689 109.401 27.3873 108.345L9.90383 87.4008C9.02226 86.3447 8.77105 84.8986 9.24484 83.6071Z" fill="#1E262E"/>
<path fill-rule="evenodd" clip-rule="evenodd" d="M8.06734 138.697C7.82562 137.493 8.24446 136.252 9.16608 135.441L27.4437 119.353C28.3653 118.541 29.6497 118.283 30.813 118.676C31.9764 119.069 32.8419 120.052 33.0837 121.256L37.8774 145.129C38.1191 146.332 37.7003 147.574 36.7787 148.385C35.8571 149.196 34.5727 149.454 33.4093 149.061L10.3379 141.276C9.17461 140.884 8.30906 139.901 8.06734 138.697Z" fill="#1E262E"/>
<path fill-rule="evenodd" clip-rule="evenodd" d="M33.5164 177.42C32.9321 176.695 32.7791 175.713 33.1151 174.844L39.7788 157.616C40.1148 156.747 40.8887 156.124 41.8091 155.981C42.7294 155.837 43.6563 156.196 44.2406 156.921L55.8289 171.306C56.4132 172.031 56.5662 173.013 56.2302 173.882C55.8942 174.751 55.1202 175.374 54.1999 175.518L35.948 178.361C35.0277 178.504 34.1007 178.146 33.5164 177.42Z" fill="#1E262E"/>
<path fill-rule="evenodd" clip-rule="evenodd" d="M105.875 181.851C140.608 181.851 168.765 153.694 168.765 118.96C168.765 84.2267 140.608 56.0696 105.875 56.0696C71.1412 56.0696 42.9841 84.2267 42.9841 118.96C42.9841 153.694 71.1412 181.851 105.875 181.851ZM139.31 119.554C139.31 137.959 124.39 152.88 105.984 152.88C87.5787 152.88 72.6581 137.959 72.6581 119.554C72.6581 101.148 87.5787 86.2279 105.984 86.2279C124.39 86.2279 139.31 101.148 139.31 119.554Z" fill="#29343F"/>
<path d="M215.317 181.594C205.004 181.594 195.994 180.121 188.287 177.174C180.694 174.114 173.667 169.297 167.207 162.724L188.457 141.474C192.877 145.667 197.524 148.897 202.397 151.164C207.271 153.317 212.484 154.394 218.037 154.394C222.684 154.394 226.197 153.714 228.577 152.354C230.957 150.881 232.147 148.897 232.147 146.404C232.147 143.911 231.127 141.871 229.087 140.284C227.047 138.584 224.327 137.111 220.927 135.864C217.641 134.504 213.957 133.144 209.877 131.784C205.911 130.424 201.944 128.781 197.977 126.854C194.011 124.927 190.327 122.604 186.927 119.884C183.641 117.051 180.977 113.594 178.937 109.514C176.897 105.321 175.877 100.221 175.877 94.2139C175.877 86.3939 177.747 79.6506 181.487 73.9839C185.227 68.3173 190.497 64.0106 197.297 61.064C204.097 58.0039 212.087 56.4739 221.267 56.4739C230.334 56.4739 238.721 57.9473 246.427 60.894C254.247 63.7273 260.707 67.8073 265.807 73.1339L244.387 94.3839C240.647 90.7573 236.907 88.0939 233.167 86.3939C229.427 84.5806 225.347 83.674 220.927 83.674C217.414 83.674 214.581 84.2406 212.427 85.374C210.387 86.5073 209.367 88.2073 209.367 90.4739C209.367 92.8539 210.387 94.8373 212.427 96.424C214.467 97.8973 217.131 99.2573 220.417 100.504C223.817 101.751 227.501 103.054 231.467 104.414C235.547 105.774 239.571 107.417 243.537 109.344C247.504 111.157 251.131 113.537 254.417 116.484C257.817 119.317 260.537 122.887 262.577 127.194C264.617 131.501 265.637 136.714 265.637 142.834C265.637 155.187 261.217 164.764 252.377 171.564C243.651 178.251 231.297 181.594 215.317 181.594Z" fill="#29343F"/>
</g>
<defs>
<filter id="filter0_d_379_108" x="8" y="8" width="258" height="178" filterUnits="userSpaceOnUse" color-interpolation-filters="sRGB">
<feFlood flood-opacity="0" result="BackgroundImageFix"/>
<feColorMatrix in="SourceAlpha" type="matrix" values="0 0 0 0 0 0 0 0 0 0 0 0 0 0 0 0 0 0 127 0" result="hardAlpha"/>
<feOffset dy="4"/>
<feColorMatrix type="matrix" values="0 0 0 0 0.117 0 0 0 0 0.1485 0 0 0 0 0.18 0 0 0 0.25 0"/>
<feBlend mode="normal" in2="BackgroundImageFix" result="effect1_dropShadow_379_108"/>
<feBlend mode="normal" in="SourceGraphic" in2="effect1_dropShadow_379_108" result="shape"/>
</filter>
</defs>
</svg>
