<svg width="200" height="200" viewBox="0 0 200 200" fill="none" xmlns="http://www.w3.org/2000/svg">
<path d="M28.5714 43.125C25.4286 43.125 22.8571 45.6844 22.8571 48.8125V162.562C22.8571 165.691 25.4286 168.25 28.5714 168.25H142.857C146 168.25 148.571 165.691 148.571 162.562V145.5C148.571 139.208 153.679 134.125 160 134.125C166.321 134.125 171.429 139.208 171.429 145.5V162.562C171.429 178.274 158.643 191 142.857 191H28.5714C12.7857 191 0 178.274 0 162.562V48.8125C0 33.1008 12.7857 20.375 28.5714 20.375H45.7143C52.0357 20.375 57.1429 25.4582 57.1429 31.75C57.1429 38.0418 52.0357 43.125 45.7143 43.125H28.5714Z" fill="white"/>
<path d="M109.107 88.625H125.714V111.375C125.714 117.667 130.821 122.75 137.143 122.75H138.464C141.286 122.75 144 121.719 146.107 119.835L195.75 75.366C198.464 72.9488 200 69.5008 200 65.875C200 62.2492 198.464 58.8012 195.75 56.384L146.393 12.1637C144.107 10.1375 141.179 9 138.107 9C131.25 9 125.714 14.5098 125.714 21.3348V43.125H97.1428C68.7499 43.125 45.7142 66.0527 45.7142 94.3125C45.7142 127.513 75.2857 142.23 81.6428 145.038C82.4642 145.393 83.3214 145.536 84.1785 145.536H85.0714C88.5714 145.536 91.4285 142.692 91.4285 139.208C91.4285 136.258 89.2857 133.663 86.8571 131.992C83.6785 129.788 79.9999 125.523 79.9999 117.596C79.9999 101.6 93.0357 88.625 109.107 88.625Z" fill="white"/>
</svg>
